<svg version="1.1" viewBox="0.0 0.0 960.0 540.0" fill="none" stroke="none" stroke-linecap="square" stroke-miterlimit="10" xmlns:xlink="http://www.w3.org/1999/xlink" xmlns="http://www.w3.org/2000/svg"><clipPath id="g36bac1e1fca_0_151.0"><path d="m0 0l960.0 0l0 540.0l-960.0 0l0 -540.0z" clip-rule="nonzero"/></clipPath><g clip-path="url(#g36bac1e1fca_0_151.0)"><path fill="#ffffff" d="m0 0l960.0 0l0 540.0l-960.0 0z" fill-rule="evenodd"/><path fill="#d7ebfe" fill-opacity="0.498" d="m27.28084 125.36858l0 0c0 -4.811737 3.9006805 -8.712418 8.712416 -8.712418l99.677536 0c2.310669 0 4.526703 0.91791534 6.1605988 2.5518112c1.6338959 1.6338959 2.5518188 3.8499298 2.5518188 6.1606064l0 235.70901c0 4.811737 -3.9006958 8.712433 -8.712418 8.712433l-99.677536 0c-4.811735 0 -8.712416 -3.9006958 -8.712416 -8.712433z" fill-rule="evenodd"/><path stroke="#c9daf8" stroke-width="1.0" stroke-linejoin="round" stroke-linecap="butt" d="m27.28084 125.36858l0 0c0 -4.811737 3.9006805 -8.712418 8.712416 -8.712418l99.677536 0c2.310669 0 4.526703 0.91791534 6.1605988 2.5518112c1.6338959 1.6338959 2.5518188 3.8499298 2.5518188 6.1606064l0 235.70901c0 4.811737 -3.9006958 8.712433 -8.712418 8.712433l-99.677536 0c-4.811735 0 -8.712416 -3.9006958 -8.712416 -8.712433z" fill-rule="evenodd"/><path fill="#000000" d="m48.91173 250.13058q-1.6875 0 -2.953125 -0.625q-1.25 -0.625 -1.953125 -1.734375q-0.6875 -1.109375 -0.6875 -2.59375l0 -8.8125l2.78125 0l0 8.59375q0 0.78125 0.34375 1.40625q0.34375 0.609375 0.96875 0.96875q0.640625 0.34375 1.5 0.34375q0.84375 0 1.484375 -0.34375q0.640625 -0.359375 0.984375 -0.96875q0.34375 -0.625 0.34375 -1.40625l0 -8.59375l2.796875 0l0 8.8125q0 1.484375 -0.703125 2.59375q-0.703125 1.109375 -1.96875 1.734375q-1.25 0.625 -2.9375 0.625zm12.030136 0.015625q-1.21875 0 -2.171875 -0.34375q-0.9375 -0.359375 -1.546875 -1.03125q-0.59375 -0.671875 -0.78125 -1.609375l2.546875 -0.4375q0.203125 0.703125 0.703125 1.0625q0.5 0.359375 1.34375 0.359375q0.765625 0 1.21875 -0.296875q0.46875 -0.296875 0.46875 -0.75q0 -0.40625 -0.328125 -0.65625q-0.328125 -0.265625 -0.984375 -0.40625l-1.765625 -0.359375q-1.46875 -0.296875 -2.203125 -1.015625q-0.734375 -0.734375 -0.734375 -1.875q0 -0.984375 0.53125 -1.6875q0.546875 -0.703125 1.5 -1.078125q0.96875 -0.390625 2.25 -0.390625q1.203125 0 2.078125 0.34375q0.890625 0.328125 1.4375038 0.9375q0.546875 0.609375 0.734375 1.4375l-2.4218788 0.421875q-0.15625 -0.515625 -0.59375 -0.84375q-0.4375 -0.34375 -1.1875 -0.34375q-0.671875 0 -1.140625 0.296875q-0.453125 0.28125 -0.453125 0.734375q0 0.390625 0.296875 0.65625q0.296875 0.265625 1.015625 0.40625l1.828125 0.375q1.4843788 0.296875 2.2031288 0.984375q0.71875 0.671875 0.71875 1.765625q0 1.0 -0.59375 1.75q-0.578125 0.75 -1.6093788 1.171875q-1.015625 0.421875 -2.359375 0.421875zm11.011097 0q-1.5625 0 -2.6875 -0.640625q-1.125 -0.640625 -1.734375 -1.8125q-0.609375 -1.171875 -0.609375 -2.78125q0 -1.578125 0.59375 -2.765625q0.609375 -1.1875 1.703125 -1.84375q1.109375 -0.671875 2.59375 -0.671875q1.0 0 1.859375 0.328125q0.875 0.3125 1.53125 0.953125q0.65625 0.640625 1.015625 1.609375q0.375 0.96875 0.375 2.28125l0 0.765625l-8.546875 0l0 -1.71875l7.21875 0l-1.28125 0.453125q0 -0.796875 -0.25 -1.375q-0.234375 -0.59375 -0.71875 -0.90625q-0.46875 -0.328125 -1.1875 -0.328125q-0.6875 0 -1.1875 0.328125q-0.5 0.328125 -0.765625 0.890625q-0.25 0.546875 -0.25 1.28125l0 1.203125q0 0.890625 0.296875 1.5q0.296875 0.59375 0.828125 0.890625q0.53125 0.296875 1.25 0.296875q0.484375 0 0.875 -0.125q0.390625 -0.140625 0.671875 -0.40625q0.28125 -0.28125 0.421875 -0.671875l2.46875 0.46875q-0.234375 0.828125 -0.84375 1.46875q-0.609375 0.640625 -1.53125 0.984375q-0.921875 0.34375 -2.109375 0.34375zm12.801086 -6.875l0 2.1875l-6.171875 0l0 -2.1875l6.171875 0zm6.992523 6.875q-1.53125 0 -2.65625 -0.65625q-1.109375 -0.671875 -1.71875 -1.84375q-0.609375 -1.1875 -0.609375 -2.75q0 -1.578125 0.609375 -2.75q0.609375 -1.1875 1.71875 -1.84375q1.125 -0.671875 2.65625 -0.671875q0.90625 0 1.671875 0.234375q0.765625 0.234375 1.359375 0.671875q0.59375 0.4375 0.96875 1.078125q0.390625 0.625 0.53125 1.40625l-2.546875 0.46875q-0.078125 -0.390625 -0.25 -0.703125q-0.171875 -0.328125 -0.421875 -0.546875q-0.25 -0.21875 -0.578125 -0.328125q-0.3125 -0.125 -0.703125 -0.125q-0.734375 0 -1.234375 0.390625q-0.484375 0.390625 -0.734375 1.09375q-0.25 0.703125 -0.25 1.609375q0 0.921875 0.25 1.625q0.25 0.6875 0.734375 1.09375q0.5 0.390625 1.234375 0.390625q0.390625 0 0.71875 -0.125q0.328125 -0.125 0.578125 -0.34375q0.265625 -0.234375 0.4375 -0.5625q0.171875 -0.328125 0.234375 -0.734375l2.546875 0.453125q-0.140625 0.8125 -0.53125 1.453125q-0.375 0.625 -0.96875 1.09375q-0.59375 0.453125 -1.375 0.6875q-0.765625 0.234375 -1.671875 0.234375zm9.456116 0q-0.96875 0 -1.75 -0.34375q-0.765625 -0.34375 -1.203125 -1.015625q-0.4375 -0.6875 -0.4375 -1.6875q0 -0.859375 0.3125 -1.421875q0.3125 -0.578125 0.84375 -0.921875q0.546875 -0.34375 1.234375 -0.53125q0.6875 -0.1875 1.453125 -0.25q0.875 -0.09375 1.421875 -0.171875q0.546875 -0.078125 0.796875 -0.25q0.25 -0.171875 0.25 -0.5l0 -0.046875q0 -0.4375 -0.1875 -0.734375q-0.1875 -0.296875 -0.546875 -0.453125q-0.34375 -0.171875 -0.859375 -0.171875q-0.53125 0 -0.921875 0.171875q-0.390625 0.15625 -0.640625 0.421875q-0.25 0.265625 -0.359375 0.59375l-2.515625 -0.421875q0.265625 -0.890625 0.875 -1.5q0.609375 -0.625 1.515625 -0.953125q0.90625 -0.328125 2.046875 -0.328125q0.828125 0 1.59375 0.203125q0.78125 0.1875 1.390625 0.609375q0.625 0.40625 0.984375 1.0625q0.359375 0.65625 0.359375 1.578125l0 6.859375l-2.59375 0l0 -1.40625l-0.09375 0q-0.25 0.46875 -0.65625 0.828125q-0.40625 0.359375 -0.984375 0.578125q-0.578125 0.203125 -1.328125 0.203125zm0.765625 -1.921875q0.640625 0 1.125 -0.25q0.5 -0.265625 0.765625 -0.703125q0.28125 -0.4375 0.28125 -0.96875l0 -1.109375q-0.125 0.09375 -0.375 0.171875q-0.234375 0.0625 -0.546875 0.125q-0.296875 0.046875 -0.59375 0.09375q-0.28125 0.046875 -0.515625 0.078125q-0.5 0.078125 -0.890625 0.25q-0.375 0.15625 -0.578125 0.421875q-0.203125 0.265625 -0.203125 0.6875q0 0.390625 0.1875 0.65625q0.203125 0.265625 0.546875 0.40625q0.34375 0.140625 0.796875 0.140625zm11.253067 1.921875q-1.21875 0 -2.171875 -0.34375q-0.9375 -0.359375 -1.546875 -1.03125q-0.59375 -0.671875 -0.78125 -1.609375l2.546875 -0.4375q0.203125 0.703125 0.703125 1.0625q0.5 0.359375 1.34375 0.359375q0.765625 0 1.21875 -0.296875q0.46875 -0.296875 0.46875 -0.75q0 -0.40625 -0.328125 -0.65625q-0.328125 -0.265625 -0.984375 -0.40625l-1.765625 -0.359375q-1.46875 -0.296875 -2.203125 -1.015625q-0.734375 -0.734375 -0.734375 -1.875q0 -0.984375 0.53125 -1.6875q0.546875 -0.703125 1.5 -1.078125q0.96875 -0.390625 2.25 -0.390625q1.203125 0 2.078125 0.34375q0.890625 0.328125 1.4375 0.9375q0.546875 0.609375 0.734375 1.4375l-2.421875 0.421875q-0.15625 -0.515625 -0.59375 -0.84375q-0.4375 -0.34375 -1.1875 -0.34375q-0.671875 0 -1.140625 0.296875q-0.453125 0.28125 -0.453125 0.734375q0 0.390625 0.296875 0.65625q0.296875 0.265625 1.015625 0.40625l1.828125 0.375q1.484375 0.296875 2.203125 0.984375q0.71875 0.671875 0.71875 1.765625q0 1.0 -0.59375 1.75q-0.578125 0.75 -1.609375 1.171875q-1.015625 0.421875 -2.359375 0.421875zm11.011093 0q-1.5625 0 -2.6875 -0.640625q-1.125 -0.640625 -1.734375 -1.8125q-0.609375 -1.171875 -0.609375 -2.78125q0 -1.578125 0.59375 -2.765625q0.609375 -1.1875 1.703125 -1.84375q1.109375 -0.671875 2.59375 -0.671875q1.0 0 1.859375 0.328125q0.875 0.3125 1.53125 0.953125q0.6562576 0.640625 1.0156326 1.609375q0.375 0.96875 0.375 2.28125l0 0.765625l-8.546883 0l0 -1.71875l7.21875 0l-1.28125 0.453125q0 -0.796875 -0.25 -1.375q-0.234375 -0.59375 -0.71875 -0.90625q-0.46875 -0.328125 -1.1875 -0.328125q-0.6875 0 -1.1875 0.328125q-0.5 0.328125 -0.765625 0.890625q-0.25 0.546875 -0.25 1.28125l0 1.203125q0 0.890625 0.296875 1.5q0.296875 0.59375 0.828125 0.890625q0.53125 0.296875 1.25 0.296875q0.484375 0 0.875 -0.125q0.390625 -0.140625 0.671875 -0.40625q0.28125 -0.28125 0.421875 -0.671875l2.4687576 0.46875q-0.234375 0.828125 -0.8437576 1.46875q-0.609375 0.640625 -1.53125 0.984375q-0.921875 0.34375 -2.109375 0.34375z" fill-rule="nonzero"/><path fill="#d6f1f5" fill-opacity="0.498" d="m349.71915 183.33217l0 0c0 -0.9676666 0.78445435 -1.752121 1.7521362 -1.752121l135.92883 0c0.46469116 0 0.91033936 0.18460083 1.2389221 0.5131836c0.32858276 0.32858276 0.5131836 0.7742462 0.5131836 1.2389374l0 44.93672c0 0.9676666 -0.7844238 1.7521057 -1.7521057 1.7521057l-135.92883 0c-0.9676819 0 -1.7521362 -0.7844391 -1.7521362 -1.7521057z" fill-rule="evenodd"/><path stroke="#d0e0e3" stroke-width="1.0" stroke-linejoin="round" stroke-linecap="butt" d="m349.71915 183.33217l0 0c0 -0.9676666 0.78445435 -1.752121 1.7521362 -1.752121l135.92883 0c0.46469116 0 0.91033936 0.18460083 1.2389221 0.5131836c0.32858276 0.32858276 0.5131836 0.7742462 0.5131836 1.2389374l0 44.93672c0 0.9676666 -0.7844238 1.7521057 -1.7521057 1.7521057l-135.92883 0c-0.9676819 0 -1.7521362 -0.7844391 -1.7521362 -1.7521057z" fill-rule="evenodd"/><path fill="#000000" d="m366.65445 211.56053l0 -11.640625l2.375 0l0 4.703125l5.078125 0l0 -4.703125l2.390625 0l0 11.640625l-2.390625 0l0 -4.96875l-5.078125 0l0 4.96875l-2.375 0zm14.90625 0.109375q-0.90625 0 -1.59375 -0.390625q-0.671875 -0.40625 -1.046875 -1.140625q-0.375 -0.734375 -0.375 -1.765625l0 -5.546875l2.34375 0l0 5.140625q0 0.8125 0.421875 1.28125q0.421875 0.453125 1.15625 0.453125q0.5 0 0.875 -0.203125q0.390625 -0.21875 0.609375 -0.625q0.21875 -0.421875 0.21875 -1.0l0 -5.046875l2.34375 0l0 8.734375l-2.21875 0l-0.03125 -2.1875l0.140625 0q-0.34375 1.109375 -1.0625 1.703125q-0.703125 0.59375 -1.78125 0.59375zm10.8203125 3.34375q-1.078125 0 -1.890625 -0.28125q-0.8125 -0.265625 -1.328125 -0.75q-0.5 -0.484375 -0.703125 -1.109375l2.015625 -0.5625q0.109375 0.25 0.34375 0.46875q0.234375 0.234375 0.609375 0.375q0.390625 0.15625 0.953125 0.15625q0.890625 0 1.40625 -0.40625q0.515625 -0.40625 0.515625 -1.28125l0 -1.609375l-0.1875 0q-0.15625 0.34375 -0.453125 0.671875q-0.296875 0.328125 -0.78125 0.546875q-0.46875 0.203125 -1.1875 0.203125q-0.984375 0 -1.796875 -0.453125q-0.796875 -0.46875 -1.28125 -1.40625q-0.46875 -0.953125 -0.46875 -2.40625q0 -1.46875 0.484375 -2.453125q0.484375 -1.0 1.296875 -1.5q0.8125 -0.5 1.78125 -0.5q0.734375 0 1.234375 0.25q0.5 0.234375 0.796875 0.609375q0.3125 0.375 0.46875 0.71875l0.109375 0l0 -1.46875l2.296875 0l0 8.65625q0 1.1875 -0.546875 1.96875q-0.53125 0.796875 -1.484375 1.171875q-0.953125 0.390625 -2.203125 0.390625zm0.046875 -5.359375q0.609375 0 1.015625 -0.296875q0.421875 -0.296875 0.640625 -0.859375q0.21875 -0.5625 0.21875 -1.34375q0 -0.765625 -0.21875 -1.34375q-0.21875 -0.578125 -0.640625 -0.890625q-0.40625 -0.328125 -1.015625 -0.328125q-0.609375 0 -1.03125 0.328125q-0.421875 0.328125 -0.640625 0.90625q-0.203125 0.578125 -0.203125 1.328125q0 0.765625 0.203125 1.328125q0.21875 0.5625 0.640625 0.875q0.421875 0.296875 1.03125 0.296875zm10.0625 5.359375q-1.078125 0 -1.890625 -0.28125q-0.8125 -0.265625 -1.328125 -0.75q-0.5 -0.484375 -0.703125 -1.109375l2.015625 -0.5625q0.109375 0.25 0.34375 0.46875q0.234375 0.234375 0.609375 0.375q0.390625 0.15625 0.953125 0.15625q0.890625 0 1.40625 -0.40625q0.515625 -0.40625 0.515625 -1.28125l0 -1.609375l-0.1875 0q-0.15625 0.34375 -0.453125 0.671875q-0.296875 0.328125 -0.78125 0.546875q-0.46875 0.203125 -1.1875 0.203125q-0.984375 0 -1.796875 -0.453125q-0.796875 -0.46875 -1.28125 -1.40625q-0.46875 -0.953125 -0.46875 -2.40625q0 -1.46875 0.484375 -2.453125q0.484375 -1.0 1.296875 -1.5q0.8125 -0.5 1.78125 -0.5q0.734375 0 1.234375 0.25q0.5 0.234375 0.796875 0.609375q0.3125 0.375 0.46875 0.71875l0.109375 0l0 -1.46875l2.296875 0l0 8.65625q0 1.1875 -0.546875 1.96875q-0.53125 0.796875 -1.484375 1.171875q-0.953125 0.390625 -2.203125 0.390625zm0.046875 -5.359375q0.609375 0 1.015625 -0.296875q0.421875 -0.296875 0.640625 -0.859375q0.21875 -0.5625 0.21875 -1.34375q0 -0.765625 -0.21875 -1.34375q-0.21875 -0.578125 -0.640625 -0.890625q-0.40625 -0.328125 -1.015625 -0.328125q-0.609375 0 -1.03125 0.328125q-0.421875 0.328125 -0.640625 0.90625q-0.203125 0.578125 -0.203125 1.328125q0 0.765625 0.203125 1.328125q0.21875 0.5625 0.640625 0.875q0.421875 0.296875 1.03125 0.296875zm6.1875 1.90625l0 -8.734375l2.34375 0l0 8.734375l-2.34375 0zm1.171875 -9.875q-0.53125 0 -0.90625 -0.34375q-0.375 -0.359375 -0.375 -0.859375q0 -0.5 0.375 -0.84375q0.375 -0.359375 0.90625 -0.359375q0.53125 0 0.90625 0.34375q0.390625 0.34375 0.390625 0.859375q0 0.5 -0.390625 0.859375q-0.375 0.34375 -0.90625 0.34375zm5.5078125 4.8125l0 5.0625l-2.34375 0l0 -8.734375l2.21875 0l0.03125 2.171875l-0.140625 0q0.34375 -1.09375 1.046875 -1.6875q0.703125 -0.59375 1.8125 -0.59375q0.90625 0 1.578125 0.390625q0.671875 0.390625 1.046875 1.140625q0.375 0.734375 0.375 1.75l0 5.5625l-2.34375 0l0 -5.15625q0 -0.8125 -0.421875 -1.265625q-0.421875 -0.46875 -1.15625 -0.46875q-0.5 0 -0.890625 0.21875q-0.375 0.21875 -0.59375 0.625q-0.21875 0.40625 -0.21875 0.984375zm11.4921875 8.515625q-1.078125 0 -1.890625 -0.28125q-0.8125 -0.265625 -1.328125 -0.75q-0.5 -0.484375 -0.703125 -1.109375l2.015625 -0.5625q0.109375 0.25 0.34375 0.46875q0.234375 0.234375 0.609375 0.375q0.390625 0.15625 0.953125 0.15625q0.890625 0 1.40625 -0.40625q0.515625 -0.40625 0.515625 -1.28125l0 -1.609375l-0.1875 0q-0.15625 0.34375 -0.453125 0.671875q-0.296875 0.328125 -0.78125 0.546875q-0.46875 0.203125 -1.1875 0.203125q-0.984375 0 -1.796875 -0.453125q-0.796875 -0.46875 -1.28125 -1.40625q-0.46875 -0.953125 -0.46875 -2.40625q0 -1.46875 0.484375 -2.453125q0.484375 -1.0 1.296875 -1.5q0.8125 -0.5 1.78125 -0.5q0.734375 0 1.234375 0.25q0.5 0.234375 0.796875 0.609375q0.3125 0.375 0.46875 0.71875l0.109375 0l0 -1.46875l2.296875 0l0 8.65625q0 1.1875 -0.546875 1.96875q-0.53125 0.796875 -1.484375 1.171875q-0.953125 0.390625 -2.203125 0.390625zm0.046875 -5.359375q0.609375 0 1.015625 -0.296875q0.421875 -0.296875 0.640625 -0.859375q0.21875 -0.5625 0.21875 -1.34375q0 -0.765625 -0.21875 -1.34375q-0.21875 -0.578125 -0.640625 -0.890625q-0.40625 -0.328125 -1.015625 -0.328125q-0.609375 0 -1.03125 0.328125q-0.421875 0.328125 -0.640625 0.90625q-0.203125 0.578125 -0.203125 1.328125q0 0.765625 0.203125 1.328125q0.21875 0.5625 0.640625 0.875q0.421875 0.296875 1.03125 0.296875zm10.0390625 1.90625l0 -11.640625l7.65625 0l0 1.96875l-5.28125 0l0 3.25l4.765625 0l0 1.953125l-4.765625 0l0 4.46875l-2.375 0zm11.5 0.171875q-0.828125 0 -1.484375 -0.296875q-0.65625 -0.296875 -1.046875 -0.875q-0.375 -0.578125 -0.375 -1.453125q0 -0.71875 0.265625 -1.203125q0.28125 -0.5 0.734375 -0.796875q0.46875 -0.296875 1.0625 -0.453125q0.59375 -0.15625 1.234375 -0.21875q0.765625 -0.078125 1.21875 -0.140625q0.46875 -0.078125 0.6875 -0.21875q0.21875 -0.140625 0.21875 -0.421875l0 -0.046875q0 -0.375 -0.15625 -0.625q-0.15625 -0.265625 -0.46875 -0.390625q-0.296875 -0.140625 -0.75 -0.140625q-0.453125 0 -0.796875 0.140625q-0.328125 0.125 -0.546875 0.359375q-0.203125 0.21875 -0.296875 0.5l-2.15625 -0.359375q0.234375 -0.75 0.75 -1.28125q0.53125 -0.53125 1.296875 -0.8125q0.78125 -0.28125 1.75 -0.28125q0.71875 0 1.375 0.171875q0.671875 0.15625 1.1875 0.515625q0.53125 0.34375 0.84375 0.90625q0.3125 0.5625 0.3125 1.359375l0 5.890625l-2.21875 0l0 -1.21875l-0.078125 0q-0.21875 0.40625 -0.578125 0.71875q-0.34375 0.3125 -0.84375 0.5q-0.484375 0.171875 -1.140625 0.171875zm0.671875 -1.65625q0.546875 0 0.96875 -0.21875q0.421875 -0.21875 0.65625 -0.59375q0.234375 -0.375 0.234375 -0.828125l0 -0.953125q-0.109375 0.078125 -0.328125 0.140625q-0.203125 0.0625 -0.46875 0.109375q-0.25 0.046875 -0.5 0.09375q-0.25 0.03125 -0.4375 0.0625q-0.4375 0.0625 -0.765625 0.203125q-0.328125 0.140625 -0.515625 0.375q-0.171875 0.21875 -0.171875 0.578125q0 0.34375 0.171875 0.578125q0.171875 0.21875 0.46875 0.34375q0.296875 0.109375 0.6875 0.109375zm10.0859375 1.65625q-1.3125 0 -2.28125 -0.5625q-0.953125 -0.578125 -1.46875 -1.578125q-0.515625 -1.015625 -0.515625 -2.359375q0 -1.359375 0.515625 -2.375q0.515625 -1.015625 1.46875 -1.578125q0.96875 -0.5625 2.28125 -0.5625q0.78125 0 1.4375 0.203125q0.65625 0.203125 1.15625 0.578125q0.515625 0.375 0.84375 0.921875q0.328125 0.53125 0.453125 1.203125l-2.1875 0.40625q-0.0625 -0.34375 -0.21875 -0.609375q-0.140625 -0.28125 -0.359375 -0.46875q-0.203125 -0.1875 -0.484375 -0.28125q-0.28125 -0.109375 -0.609375 -0.109375q-0.625 0 -1.0625 0.34375q-0.421875 0.328125 -0.640625 0.9375q-0.203125 0.59375 -0.203125 1.375q0 0.78125 0.203125 1.390625q0.21875 0.59375 0.640625 0.9375q0.4375 0.34375 1.0625 0.34375q0.328125 0 0.609375 -0.109375q0.28125 -0.109375 0.5 -0.296875q0.21875 -0.203125 0.359375 -0.484375q0.15625 -0.28125 0.21875 -0.640625l2.1875 0.40625q-0.125 0.6875 -0.453125 1.234375q-0.328125 0.546875 -0.84375 0.9375q-0.5 0.390625 -1.171875 0.59375q-0.65625 0.203125 -1.4375 0.203125zm9.4609375 0q-1.34375 0 -2.3125 -0.546875q-0.96875 -0.546875 -1.484375 -1.546875q-0.515625 -1.015625 -0.515625 -2.40625q0 -1.34375 0.515625 -2.359375q0.515625 -1.015625 1.453125 -1.578125q0.953125 -0.578125 2.21875 -0.578125q0.859375 0 1.59375 0.28125q0.75 0.265625 1.3125 0.8125q0.5625 0.546875 0.875 1.375q0.328125 0.828125 0.328125 1.953125l0 0.65625l-7.34375 0l0 -1.46875l6.1875 0l-1.09375 0.390625q0 -0.671875 -0.203125 -1.171875q-0.203125 -0.515625 -0.625 -0.78125q-0.40625 -0.28125 -1.015625 -0.28125q-0.59375 0 -1.03125 0.28125q-0.421875 0.28125 -0.640625 0.765625q-0.21875 0.46875 -0.21875 1.09375l0 1.03125q0 0.765625 0.25 1.28125q0.265625 0.515625 0.71875 0.78125q0.453125 0.25 1.0625 0.25q0.421875 0 0.75 -0.109375q0.34375 -0.125 0.578125 -0.359375q0.234375 -0.234375 0.359375 -0.5625l2.125 0.390625q-0.203125 0.71875 -0.734375 1.265625q-0.515625 0.546875 -1.3125 0.84375q-0.78125 0.296875 -1.796875 0.296875z" fill-rule="nonzero"/><path fill="#eeeeee" d="m218.12204 116.656166l61.148987 0l0 43.00039c-30.574493 0 -30.574493 16.383942 -61.148987 7.074875z" fill-rule="evenodd"/><path stroke="#595959" stroke-width="1.0" stroke-linejoin="round" stroke-linecap="butt" d="m218.12204 116.656166l61.148987 0l0 43.00039c-30.574493 0 -30.574493 16.383942 -61.148987 7.074875z" fill-rule="evenodd"/><path fill="#000000" d="m231.1807 142.95636l3.3125 -9.703125l2.609375 0l3.390625 9.703125l-2.203125 0l-1.546875 -4.671875q-0.28125 -0.90625 -0.578125 -1.984375q-0.28125 -1.078125 -0.609375 -2.359375l0.4375 0q-0.3125 1.28125 -0.578125 2.375q-0.265625 1.078125 -0.53125 1.96875l-1.5 4.671875l-2.203125 0zm2.078125 -2.25l0 -1.5625l5.171875 0l0 1.5625l-5.171875 0zm8.388046 4.96875l0 -10.0l1.921875 0l0 1.234375l0.09375 0q0.140625 -0.296875 0.390625 -0.59375q0.25 -0.3125 0.65625 -0.515625q0.40625 -0.203125 1.03125 -0.203125q0.8125 0 1.46875 0.421875q0.671875 0.40625 1.078125 1.234375q0.40625 0.828125 0.40625 2.078125q0 1.203125 -0.390625 2.046875q-0.390625 0.84375 -1.0625 1.28125q-0.671875 0.421875 -1.515625 0.421875q-0.59375 0 -1.0 -0.203125q-0.40625 -0.203125 -0.671875 -0.5q-0.25 -0.296875 -0.390625 -0.59375l-0.0625 0l0 3.890625l-1.953125 0zm3.484375 -4.15625q0.5 0 0.84375 -0.28125q0.359375 -0.28125 0.53125 -0.78125q0.1875 -0.5 0.1875 -1.125q0 -0.640625 -0.1875 -1.125q-0.171875 -0.5 -0.515625 -0.78125q-0.34375 -0.28125 -0.859375 -0.28125q-0.5 0 -0.859375 0.28125q-0.34375 0.265625 -0.53125 0.75q-0.1875 0.484375 -0.1875 1.15625q0 0.65625 0.1875 1.15625q0.1875 0.484375 0.53125 0.765625q0.359375 0.265625 0.859375 0.265625zm4.9172974 4.15625l0 -10.0l1.921875 0l0 1.234375l0.09375 0q0.140625 -0.296875 0.390625 -0.59375q0.25 -0.3125 0.65625 -0.515625q0.40625 -0.203125 1.03125 -0.203125q0.8125 0 1.46875 0.421875q0.67185974 0.40625 1.0781097 1.234375q0.40625 0.828125 0.40625 2.078125q0 1.203125 -0.390625 2.046875q-0.390625 0.84375 -1.0624847 1.28125q-0.671875 0.421875 -1.515625 0.421875q-0.59375 0 -1.0 -0.203125q-0.40625 -0.203125 -0.671875 -0.5q-0.25 -0.296875 -0.390625 -0.59375l-0.0625 0l0 3.890625l-1.953125 0zm3.484375 -4.15625q0.5 0 0.84375 -0.28125q0.359375 -0.28125 0.53125 -0.78125q0.1875 -0.5 0.1875 -1.125q0 -0.640625 -0.1875 -1.125q-0.171875 -0.5 -0.515625 -0.78125q-0.34375 -0.28125 -0.859375 -0.28125q-0.5 0 -0.859375 0.28125q-0.34375 0.265625 -0.53125 0.75q-0.1875 0.484375 -0.1875 1.15625q0 0.65625 0.1875 1.15625q0.1875 0.484375 0.53125 0.765625q0.359375 0.265625 0.859375 0.265625zm12.120499 -8.265625l0 9.703125l-1.984375 0l0 -7.953125l-0.0625 0l-2.21875 1.578125l0 -1.8125l2.140625 -1.515625l2.125 0z" fill-rule="nonzero"/><path fill="#eeeeee" d="m218.12204 184.93964l61.148987 0l0 43.00038c-30.574493 0 -30.574493 16.383942 -61.148987 7.07489z" fill-rule="evenodd"/><path stroke="#595959" stroke-width="1.0" stroke-linejoin="round" stroke-linecap="butt" d="m218.12204 184.93964l61.148987 0l0 43.00038c-30.574493 0 -30.574493 16.383942 -61.148987 7.07489z" fill-rule="evenodd"/><path fill="#000000" d="m229.8596 211.23982l3.3125 -9.703125l2.609375 0l3.390625 9.703125l-2.203125 0l-1.546875 -4.671875q-0.28125 -0.90625 -0.578125 -1.984375q-0.28125 -1.078125 -0.609375 -2.359375l0.4375 0q-0.3125 1.28125 -0.578125 2.375q-0.265625 1.078125 -0.53125 1.96875l-1.5 4.671875l-2.203125 0zm2.078125 -2.25l0 -1.5625l5.171875 0l0 1.5625l-5.171875 0zm8.388046 4.96875l0 -10.0l1.921875 0l0 1.234375l0.09375 0q0.140625 -0.296875 0.390625 -0.59375q0.25 -0.3125 0.65625 -0.515625q0.40625 -0.203125 1.03125 -0.203125q0.8125 0 1.46875 0.421875q0.671875 0.40625 1.078125 1.234375q0.40625 0.828125 0.40625 2.078125q0 1.203125 -0.390625 2.046875q-0.390625 0.84375 -1.0625 1.28125q-0.671875 0.421875 -1.515625 0.421875q-0.59375 0 -1.0 -0.203125q-0.40625 -0.203125 -0.671875 -0.5q-0.25 -0.296875 -0.390625 -0.59375l-0.0625 0l0 3.890625l-1.953125 0zm3.484375 -4.15625q0.5 0 0.84375 -0.28125q0.359375 -0.28125 0.53125 -0.78125q0.1875 -0.5 0.1875 -1.125q0 -0.640625 -0.1875 -1.125q-0.171875 -0.5 -0.515625 -0.78125q-0.34375 -0.28125 -0.859375 -0.28125q-0.5 0 -0.859375 0.28125q-0.34375 0.265625 -0.53125 0.75q-0.1875 0.484375 -0.1875 1.15625q0 0.65625 0.1875 1.15625q0.1875 0.484375 0.53125 0.765625q0.359375 0.265625 0.859375 0.265625zm4.9172974 4.15625l0 -10.0l1.9218597 0l0 1.234375l0.09375 0q0.140625 -0.296875 0.390625 -0.59375q0.25 -0.3125 0.65625 -0.515625q0.40625 -0.203125 1.03125 -0.203125q0.8125 0 1.46875 0.421875q0.671875 0.40625 1.078125 1.234375q0.40625 0.828125 0.40625 2.078125q0 1.203125 -0.390625 2.046875q-0.390625 0.84375 -1.0625 1.28125q-0.671875 0.421875 -1.515625 0.421875q-0.59375 0 -1.0 -0.203125q-0.40625 -0.203125 -0.671875 -0.5q-0.25 -0.296875 -0.390625 -0.59375l-0.0625 0l0 3.890625l-1.9531097 0zm3.4843597 -4.15625q0.5 0 0.84375 -0.28125q0.359375 -0.28125 0.53125 -0.78125q0.1875 -0.5 0.1875 -1.125q0 -0.640625 -0.1875 -1.125q-0.171875 -0.5 -0.515625 -0.78125q-0.34375 -0.28125 -0.859375 -0.28125q-0.5 0 -0.859375 0.28125q-0.34375 0.265625 -0.53125 0.75q-0.1875 0.484375 -0.1875 1.15625q0 0.65625 0.1875 1.15625q0.1875 0.484375 0.53125 0.765625q0.359375 0.265625 0.859375 0.265625zm8.057999 1.4375l0 -1.4375l3.4375 -3.21875q0.4375 -0.421875 0.734375 -0.765625q0.3125 -0.359375 0.46875 -0.6875q0.15625 -0.34375 0.15625 -0.734375q0 -0.4375 -0.203125 -0.75q-0.1875 -0.3125 -0.53125 -0.46875q-0.328125 -0.171875 -0.765625 -0.171875q-0.453125 0 -0.796875 0.1875q-0.328125 0.171875 -0.515625 0.515625q-0.1875 0.328125 -0.1875 0.8125l-1.890625 0q0 -0.953125 0.421875 -1.640625q0.4375 -0.703125 1.203125 -1.078125q0.78125 -0.390625 1.78125 -0.390625q1.015625 0 1.78125 0.375q0.78125 0.359375 1.203125 1.015625q0.421875 0.640625 0.421875 1.46875q0 0.546875 -0.21875 1.078125q-0.203125 0.515625 -0.75 1.171875q-0.53125 0.65625 -1.53125 1.5625l-1.46875 1.453125l0 0.0625l4.109375 0l0 1.640625l-6.859375 0z" fill-rule="nonzero"/><path fill="#eeeeee" d="m218.12204 253.2231l61.148987 0l0 43.00038c-30.574493 0 -30.574493 16.383942 -61.148987 7.07489z" fill-rule="evenodd"/><path stroke="#595959" stroke-width="1.0" stroke-linejoin="round" stroke-linecap="butt" d="m218.12204 253.2231l61.148987 0l0 43.00038c-30.574493 0 -30.574493 16.383942 -61.148987 7.07489z" fill-rule="evenodd"/><path fill="#000000" d="m229.75223 279.5233l3.3125 -9.703125l2.609375 0l3.390625 9.703125l-2.203125 0l-1.546875 -4.671875q-0.28125 -0.90625 -0.578125 -1.984375q-0.28125 -1.078125 -0.609375 -2.359375l0.4375 0q-0.3125 1.28125 -0.578125 2.375q-0.265625 1.078125 -0.53125 1.96875l-1.5 4.671875l-2.203125 0zm2.078125 -2.25l0 -1.5625l5.171875 0l0 1.5625l-5.171875 0zm8.388046 4.96875l0 -10.0l1.921875 0l0 1.234375l0.09375 0q0.140625 -0.296875 0.390625 -0.59375q0.25 -0.3125 0.65625 -0.515625q0.40625 -0.203125 1.03125 -0.203125q0.8125 0 1.46875 0.421875q0.671875 0.40625 1.078125 1.234375q0.40625 0.828125 0.40625 2.078125q0 1.203125 -0.390625 2.046875q-0.390625 0.84375 -1.0625 1.28125q-0.671875 0.421875 -1.515625 0.421875q-0.59375 0 -1.0 -0.203125q-0.40625 -0.203125 -0.671875 -0.5q-0.25 -0.296875 -0.390625 -0.59375l-0.0625 0l0 3.890625l-1.953125 0zm3.484375 -4.15625q0.5 0 0.84375 -0.28125q0.359375 -0.28125 0.53125 -0.78125q0.1875 -0.5 0.1875 -1.125q0 -0.640625 -0.1875 -1.125q-0.171875 -0.5 -0.515625 -0.78125q-0.34375 -0.28125 -0.859375 -0.28125q-0.5 0 -0.859375 0.28125q-0.34375 0.265625 -0.53125 0.75q-0.1875 0.484375 -0.1875 1.15625q0 0.65625 0.1875 1.15625q0.1875 0.484375 0.53125 0.765625q0.359375 0.265625 0.859375 0.265625zm4.9172974 4.15625l0 -10.0l1.9218597 0l0 1.234375l0.09375 0q0.140625 -0.296875 0.390625 -0.59375q0.25 -0.3125 0.65625 -0.515625q0.40625 -0.203125 1.03125 -0.203125q0.8125 0 1.46875 0.421875q0.671875 0.40625 1.078125 1.234375q0.40625 0.828125 0.40625 2.078125q0 1.203125 -0.390625 2.046875q-0.390625 0.84375 -1.0625 1.28125q-0.671875 0.421875 -1.515625 0.421875q-0.59375 0 -1.0 -0.203125q-0.40625 -0.203125 -0.671875 -0.5q-0.25 -0.296875 -0.390625 -0.59375l-0.0625 0l0 3.890625l-1.9531097 0zm3.4843597 -4.15625q0.5 0 0.84375 -0.28125q0.359375 -0.28125 0.53125 -0.78125q0.1875 -0.5 0.1875 -1.125q0 -0.640625 -0.1875 -1.125q-0.171875 -0.5 -0.515625 -0.78125q-0.34375 -0.28125 -0.859375 -0.28125q-0.5 0 -0.859375 0.28125q-0.34375 0.265625 -0.53125 0.75q-0.1875 0.484375 -0.1875 1.15625q0 0.65625 0.1875 1.15625q0.1875 0.484375 0.53125 0.765625q0.359375 0.265625 0.859375 0.265625zm11.526764 1.5625q-1.046875 0 -1.875 -0.359375q-0.8125 -0.359375 -1.28125 -1.0q-0.46875 -0.640625 -0.484375 -1.484375l2.0 0q0.015625 0.359375 0.234375 0.640625q0.21875 0.265625 0.59375 0.421875q0.375 0.140625 0.828125 0.140625q0.484375 0 0.84375 -0.15625q0.359375 -0.171875 0.5625 -0.46875q0.21875 -0.3125 0.21875 -0.703125q0 -0.40625 -0.21875 -0.703125q-0.21875 -0.3125 -0.625 -0.484375q-0.40625 -0.171875 -0.96875 -0.171875l-0.890625 0l0 -1.484375l0.890625 0q0.484375 0 0.84375 -0.15625q0.359375 -0.171875 0.5625 -0.453125q0.203125 -0.296875 0.203125 -0.6875q0 -0.375 -0.1875 -0.65625q-0.171875 -0.28125 -0.484375 -0.4375q-0.3125 -0.15625 -0.734375 -0.15625q-0.421875 0 -0.78125 0.15625q-0.34375 0.140625 -0.5625 0.421875q-0.21875 0.265625 -0.21875 0.640625l-1.921875 0q0.015625 -0.8125 0.46875 -1.453125q0.46875 -0.640625 1.25 -1.0q0.796875 -0.359375 1.78125 -0.359375q0.984375 0 1.734375 0.375q0.75 0.359375 1.15625 0.984375q0.421875 0.609375 0.421875 1.359375q0 0.8125 -0.515625 1.359375q-0.5 0.546875 -1.296875 0.703125l0 0.078125q0.703125 0.09375 1.1875 0.40625q0.484375 0.296875 0.71875 0.78125q0.25 0.46875 0.25 1.0625q0 0.828125 -0.46875 1.46875q-0.46875 0.640625 -1.3125 1.015625q-0.828125 0.359375 -1.921875 0.359375z" fill-rule="nonzero"/><path fill="#eeeeee" d="m557.00525 223.2769l61.148987 0l0 43.00038c-30.574524 0 -30.574524 16.383942 -61.148987 7.07489z" fill-rule="evenodd"/><path stroke="#595959" stroke-width="1.0" stroke-linejoin="round" stroke-linecap="butt" d="m557.00525 223.2769l61.148987 0l0 43.00038c-30.574524 0 -30.574524 16.383942 -61.148987 7.07489z" fill-rule="evenodd"/><path fill="#000000" d="m571.39905 246.29709l1.53125 0l0.796875 1.03125l0.71875 0.84375l1.46875 1.859375l-1.671875 0l-1.0 -1.25l-0.484375 -0.6875l-1.359375 -1.796875zm0.546875 3.125q-1.15625 0 -2.078125 -0.53125q-0.921875 -0.53125 -1.46875 -1.53125q-0.53125 -1.0 -0.53125 -2.421875q0 -1.421875 0.53125 -2.421875q0.546875 -1.015625 1.46875 -1.53125q0.921875 -0.53125 2.078125 -0.53125q1.15625 0 2.078125 0.53125q0.921875 0.515625 1.453125 1.53125q0.546875 1.0 0.546875 2.421875q0 1.421875 -0.546875 2.421875q-0.53125 1.0 -1.453125 1.53125q-0.921875 0.53125 -2.078125 0.53125zm0 -1.59375q0.671875 0 1.171875 -0.328125q0.515625 -0.34375 0.796875 -0.984375q0.28125 -0.640625 0.28125 -1.578125q0 -0.9375 -0.28125 -1.578125q-0.28125 -0.65625 -0.796875 -0.984375q-0.5 -0.34375 -1.171875 -0.34375q-0.671875 0 -1.1875 0.34375q-0.5 0.328125 -0.78125 0.984375q-0.28125 0.640625 -0.28125 1.578125q0 0.9375 0.28125 1.578125q0.28125 0.640625 0.78125 0.984375q0.515625 0.328125 1.1875 0.328125zm7.6972656 1.546875q-0.671875 0 -1.1875 -0.296875q-0.5 -0.296875 -0.78125 -0.84375q-0.28125 -0.5625 -0.28125 -1.328125l0 -4.15625l1.765625 0l0 3.859375q0 0.609375 0.3125 0.953125q0.3125 0.34375 0.859375 0.34375q0.375 0 0.65625 -0.15625q0.296875 -0.171875 0.453125 -0.46875q0.171875 -0.3125 0.171875 -0.75l0 -3.78125l1.75 0l0 6.546875l-1.65625 0l-0.015625 -1.640625l0.09375 0q-0.265625 0.828125 -0.796875 1.28125q-0.515625 0.4375 -1.34375 0.4375zm7.048828 0.046875q-0.625 0 -1.125 -0.21875q-0.484375 -0.21875 -0.765625 -0.65625q-0.28125 -0.4375 -0.28125 -1.078125q0 -0.546875 0.1875 -0.921875q0.203125 -0.375 0.546875 -0.59375q0.359375 -0.21875 0.796875 -0.328125q0.453125 -0.125 0.9375 -0.171875q0.5625 -0.0625 0.90625 -0.109375q0.359375 -0.046875 0.515625 -0.15625q0.15625 -0.109375 0.15625 -0.328125l0 -0.015625q0 -0.28125 -0.125 -0.46875q-0.109375 -0.203125 -0.34375 -0.296875q-0.21875 -0.109375 -0.546875 -0.109375q-0.34375 0 -0.59375 0.109375q-0.25 0.09375 -0.40625 0.265625q-0.15625 0.171875 -0.234375 0.375l-1.609375 -0.265625q0.15625 -0.578125 0.546875 -0.96875q0.40625 -0.40625 0.984375 -0.609375q0.578125 -0.21875 1.3125 -0.21875q0.53125 0 1.03125 0.140625q0.5 0.125 0.890625 0.390625q0.390625 0.25 0.625 0.671875q0.234375 0.421875 0.234375 1.03125l0 4.40625l-1.671875 0l0 -0.90625l-0.046875 0q-0.15625 0.296875 -0.421875 0.53125q-0.265625 0.234375 -0.640625 0.375q-0.375 0.125 -0.859375 0.125zm0.5 -1.234375q0.421875 0 0.734375 -0.15625q0.3125 -0.171875 0.484375 -0.453125q0.171875 -0.28125 0.171875 -0.625l0 -0.703125q-0.078125 0.046875 -0.234375 0.09375q-0.15625 0.046875 -0.359375 0.09375q-0.1875 0.03125 -0.375 0.0625q-0.1875 0.03125 -0.328125 0.046875q-0.328125 0.046875 -0.578125 0.15625q-0.234375 0.09375 -0.375 0.265625q-0.125 0.171875 -0.125 0.453125q0 0.25 0.125 0.421875q0.125 0.171875 0.34375 0.265625q0.21875 0.078125 0.515625 0.078125zm4.638672 1.109375l0 -6.546875l1.703125 0l0 1.140625l0.0625 0q0.1875 -0.609375 0.609375 -0.921875q0.421875 -0.3125 0.984375 -0.3125q0.125 0 0.28125 0.015625q0.15625 0.015625 0.28125 0.046875l0 1.5625q-0.125 -0.03125 -0.34375 -0.046875q-0.21875 -0.03125 -0.421875 -0.03125q-0.390625 0 -0.71875 0.171875q-0.328125 0.171875 -0.5 0.484375q-0.171875 0.296875 -0.171875 0.703125l0 3.734375l-1.765625 0zm8.371094 -6.546875l0 1.34375l-3.875 0l0 -1.34375l3.875 0zm-2.984375 -1.5625l1.765625 0l0 6.1875q0 0.3125 0.125 0.46875q0.140625 0.140625 0.46875 0.140625q0.09375 0 0.28125 -0.015625q0.1875 -0.03125 0.28125 -0.0625l0.25 1.328125q-0.296875 0.09375 -0.59375 0.125q-0.28125 0.03125 -0.546875 0.03125q-0.984375 0 -1.515625 -0.484375q-0.515625 -0.484375 -0.515625 -1.375l0 -6.34375zm6.9492188 8.234375q-0.984375 0 -1.71875 -0.421875q-0.71875 -0.421875 -1.109375 -1.171875q-0.390625 -0.765625 -0.390625 -1.78125q0 -1.015625 0.390625 -1.765625q0.390625 -0.765625 1.109375 -1.1875q0.734375 -0.4375 1.71875 -0.4375q0.984375 0 1.703125 0.4375q0.71875 0.421875 1.109375 1.1875q0.390625 0.75 0.390625 1.765625q0 1.015625 -0.390625 1.78125q-0.390625 0.75 -1.109375 1.171875q-0.71875 0.421875 -1.703125 0.421875zm0 -1.375q0.46875 0 0.78125 -0.265625q0.3125 -0.265625 0.46875 -0.71875q0.15625 -0.453125 0.15625 -1.015625q0 -0.578125 -0.15625 -1.03125q-0.15625 -0.453125 -0.46875 -0.703125q-0.3125 -0.265625 -0.78125 -0.265625q-0.46875 0 -0.796875 0.265625q-0.3125 0.25 -0.46875 0.703125q-0.15625 0.453125 -0.15625 1.03125q0 0.5625 0.15625 1.015625q0.15625 0.453125 0.46875 0.71875q0.328125 0.265625 0.796875 0.265625z" fill-rule="nonzero"/><path fill="#d6f1f5" fill-opacity="0.498" d="m349.71915 259.61826l0 0c0 -0.9676819 0.78445435 -1.7521057 1.7521362 -1.7521057l135.92883 0c0.46469116 0 0.91033936 0.18460083 1.2389221 0.5131836c0.32858276 0.32858276 0.5131836 0.77423096 0.5131836 1.2389221l0 44.936737c0 0.96765137 -0.7844238 1.7521057 -1.7521057 1.7521057l-135.92883 0c-0.9676819 0 -1.7521362 -0.78445435 -1.7521362 -1.7521057z" fill-rule="evenodd"/><path stroke="#d0e0e3" stroke-width="1.0" stroke-linejoin="round" stroke-linecap="butt" d="m349.71915 259.61826l0 0c0 -0.9676819 0.78445435 -1.7521057 1.7521362 -1.7521057l135.92883 0c0.46469116 0 0.91033936 0.18460083 1.2389221 0.5131836c0.32858276 0.32858276 0.5131836 0.77423096 0.5131836 1.2389221l0 44.936737c0 0.96765137 -0.7844238 1.7521057 -1.7521057 1.7521057l-135.92883 0c-0.9676819 0 -1.7521362 -0.78445435 -1.7521362 -1.7521057z" fill-rule="evenodd"/><path fill="#000000" d="m372.9396 288.00287q-1.640625 0 -2.875 -0.71875q-1.21875 -0.734375 -1.921875 -2.0625q-0.6875 -1.34375 -0.6875 -3.1875q0 -1.890625 0.71875 -3.21875q0.71875 -1.34375 1.9375 -2.046875q1.234375 -0.71875 2.765625 -0.71875q0.984375 0 1.828125 0.28125q0.859375 0.28125 1.515625 0.8125q0.65625 0.515625 1.078125 1.234375q0.421875 0.71875 0.546875 1.578125l-2.421875 0q-0.125 -0.421875 -0.359375 -0.75q-0.21875 -0.328125 -0.53125 -0.5625q-0.3125 -0.234375 -0.71875 -0.359375q-0.40625 -0.125 -0.890625 -0.125q-0.90625 0 -1.59375 0.453125q-0.6875 0.453125 -1.078125 1.3125q-0.375 0.859375 -0.375 2.09375q0 1.234375 0.375 2.09375q0.390625 0.859375 1.078125 1.3125q0.6875 0.453125 1.625 0.453125q0.84375 0 1.4375 -0.296875q0.609375 -0.3125 0.921875 -0.875q0.328125 -0.5625 0.328125 -1.328125l0.5 0.078125l-3.03125 0l0 -1.8125l4.84375 0l0 1.453125q0 1.53125 -0.65625 2.625q-0.640625 1.09375 -1.78125 1.6875q-1.125 0.59375 -2.578125 0.59375zm10.6953125 0.015625q-1.3125 0 -2.28125 -0.5625q-0.953125 -0.578125 -1.46875 -1.578125q-0.515625 -1.015625 -0.515625 -2.359375q0 -1.359375 0.515625 -2.375q0.515625 -1.015625 1.46875 -1.578125q0.96875 -0.5625 2.28125 -0.5625q1.328125 0 2.28125 0.5625q0.953125 0.5625 1.46875 1.578125q0.53125 1.015625 0.53125 2.375q0 1.34375 -0.53125 2.359375q-0.515625 1.0 -1.46875 1.578125q-0.953125 0.5625 -2.28125 0.5625zm0 -1.84375q0.625 0 1.046875 -0.34375q0.421875 -0.359375 0.625 -0.953125q0.21875 -0.609375 0.21875 -1.375q0 -0.765625 -0.21875 -1.359375q-0.203125 -0.609375 -0.625 -0.953125q-0.421875 -0.34375 -1.046875 -0.34375q-0.625 0 -1.046875 0.34375q-0.40625 0.34375 -0.625 0.953125q-0.203125 0.59375 -0.203125 1.359375q0 0.765625 0.203125 1.375q0.21875 0.59375 0.625 0.953125q0.421875 0.34375 1.046875 0.34375zm9.8125 1.84375q-1.3125 0 -2.28125 -0.5625q-0.953125 -0.578125 -1.46875 -1.578125q-0.515625 -1.015625 -0.515625 -2.359375q0 -1.359375 0.515625 -2.375q0.515625 -1.015625 1.46875 -1.578125q0.96875 -0.5625 2.28125 -0.5625q1.328125 0 2.28125 0.5625q0.953125 0.5625 1.46875 1.578125q0.53125 1.015625 0.53125 2.375q0 1.34375 -0.53125 2.359375q-0.515625 1.0 -1.46875 1.578125q-0.953125 0.5625 -2.28125 0.5625zm0 -1.84375q0.625 0 1.046875 -0.34375q0.421875 -0.359375 0.625 -0.953125q0.21875 -0.609375 0.21875 -1.375q0 -0.765625 -0.21875 -1.359375q-0.203125 -0.609375 -0.625 -0.953125q-0.421875 -0.34375 -1.046875 -0.34375q-0.625 0 -1.046875 0.34375q-0.40625 0.34375 -0.625 0.953125q-0.203125 0.59375 -0.203125 1.359375q0 0.765625 0.203125 1.375q0.21875 0.59375 0.625 0.953125q0.421875 0.34375 1.046875 0.34375zm9.78125 5.125q-1.078125 0 -1.890625 -0.28125q-0.8125 -0.265625 -1.328125 -0.75q-0.5 -0.484375 -0.703125 -1.109375l2.015625 -0.5625q0.109375 0.25 0.34375 0.46875q0.234375 0.234375 0.609375 0.375q0.390625 0.15625 0.953125 0.15625q0.890625 0 1.40625 -0.40625q0.515625 -0.40625 0.515625 -1.28125l0 -1.609375l-0.1875 0q-0.15625 0.34375 -0.453125 0.671875q-0.296875 0.328125 -0.78125 0.546875q-0.46875 0.203125 -1.1875 0.203125q-0.984375 0 -1.796875 -0.453125q-0.796875 -0.46875 -1.28125 -1.40625q-0.46875 -0.953125 -0.46875 -2.40625q0 -1.46875 0.484375 -2.453125q0.484375 -1.0 1.296875 -1.5q0.8125 -0.5 1.78125 -0.5q0.734375 0 1.234375 0.25q0.5 0.234375 0.796875 0.609375q0.3125 0.375 0.46875 0.71875l0.109375 0l0 -1.46875l2.296875 0l0 8.65625q0 1.1875 -0.546875 1.96875q-0.53125 0.796875 -1.484375 1.171875q-0.953125 0.390625 -2.203125 0.390625zm0.046875 -5.359375q0.609375 0 1.015625 -0.296875q0.421875 -0.296875 0.640625 -0.859375q0.21875 -0.5625 0.21875 -1.34375q0 -0.765625 -0.21875 -1.34375q-0.21875 -0.578125 -0.640625 -0.890625q-0.40625 -0.328125 -1.015625 -0.328125q-0.609375 0 -1.03125 0.328125q-0.421875 0.328125 -0.640625 0.90625q-0.203125 0.578125 -0.203125 1.328125q0 0.765625 0.203125 1.328125q0.21875 0.5625 0.640625 0.875q0.421875 0.296875 1.03125 0.296875zm8.53125 -9.734375l0 11.640625l-2.34375 0l0 -11.640625l2.34375 0zm5.9453125 11.8125q-1.34375 0 -2.3125 -0.546875q-0.96875 -0.546875 -1.484375 -1.546875q-0.515625 -1.015625 -0.515625 -2.40625q0 -1.34375 0.515625 -2.359375q0.515625 -1.015625 1.453125 -1.578125q0.953125 -0.578125 2.21875 -0.578125q0.859375 0 1.59375 0.28125q0.75 0.265625 1.3125 0.8125q0.5625 0.546875 0.875 1.375q0.328125 0.828125 0.328125 1.953125l0 0.65625l-7.34375 0l0 -1.46875l6.1875 0l-1.09375 0.390625q0 -0.671875 -0.203125 -1.171875q-0.203125 -0.515625 -0.625 -0.78125q-0.40625 -0.28125 -1.015625 -0.28125q-0.59375 0 -1.03125 0.28125q-0.421875 0.28125 -0.640625 0.765625q-0.21875 0.46875 -0.21875 1.09375l0 1.03125q0 0.765625 0.25 1.28125q0.265625 0.515625 0.71875 0.78125q0.453125 0.25 1.0625 0.25q0.421875 0 0.75 -0.109375q0.34375 -0.125 0.578125 -0.359375q0.234375 -0.234375 0.359375 -0.5625l2.125 0.390625q-0.203125 0.71875 -0.734375 1.265625q-0.515625 0.546875 -1.3125 0.84375q-0.78125 0.296875 -1.796875 0.296875zm14.5078125 -0.015625q-1.546875 0 -2.765625 -0.703125q-1.21875 -0.703125 -1.9375 -2.03125q-0.703125 -1.34375 -0.703125 -3.234375q0 -1.90625 0.703125 -3.234375q0.71875 -1.34375 1.9375 -2.046875q1.234375 -0.703125 2.765625 -0.703125q1.0 0 1.84375 0.28125q0.859375 0.265625 1.515625 0.796875q0.671875 0.53125 1.09375 1.3125q0.421875 0.765625 0.5625 1.734375l-2.421875 0q-0.078125 -0.46875 -0.296875 -0.84375q-0.21875 -0.375 -0.5625 -0.625q-0.328125 -0.265625 -0.765625 -0.40625q-0.421875 -0.140625 -0.921875 -0.140625q-0.90625 0 -1.59375 0.453125q-0.6875 0.453125 -1.0625 1.328125q-0.375 0.859375 -0.375 2.09375q0 1.25 0.375 2.109375q0.390625 0.859375 1.0625 1.296875q0.6875 0.4375 1.59375 0.4375q0.5 0 0.921875 -0.125q0.421875 -0.140625 0.765625 -0.40625q0.34375 -0.265625 0.5625 -0.640625q0.21875 -0.375 0.3125 -0.84375l2.40625 0q-0.09375 0.8125 -0.484375 1.5625q-0.375 0.734375 -1.015625 1.328125q-0.640625 0.578125 -1.53125 0.921875q-0.875 0.328125 -1.984375 0.328125zm9.0390625 -11.796875l0 11.640625l-2.34375 0l0 -11.640625l2.34375 0zm5.8984375 11.8125q-1.3125 0 -2.28125 -0.5625q-0.953125 -0.578125 -1.46875 -1.578125q-0.515625 -1.015625 -0.515625 -2.359375q0 -1.359375 0.515625 -2.375q0.515625 -1.015625 1.46875 -1.578125q0.96875 -0.5625 2.28125 -0.5625q1.328125 0 2.28125 0.5625q0.953125 0.5625 1.46875 1.578125q0.53125 1.015625 0.53125 2.375q0 1.34375 -0.53125 2.359375q-0.515625 1.0 -1.46875 1.578125q-0.953125 0.5625 -2.28125 0.5625zm0 -1.84375q0.625 0 1.046875 -0.34375q0.421875 -0.359375 0.625 -0.953125q0.21875 -0.609375 0.21875 -1.375q0 -0.765625 -0.21875 -1.359375q-0.203125 -0.609375 -0.625 -0.953125q-0.421875 -0.34375 -1.046875 -0.34375q-0.625 0 -1.046875 0.34375q-0.40625 0.34375 -0.625 0.953125q-0.203125 0.59375 -0.203125 1.359375q0 0.765625 0.203125 1.375q0.21875 0.59375 0.625 0.953125q0.421875 0.34375 1.046875 0.34375zm8.921875 1.78125q-0.90625 0 -1.59375 -0.390625q-0.671875 -0.40625 -1.046875 -1.140625q-0.375 -0.734375 -0.375 -1.765625l0 -5.546875l2.34375 0l0 5.140625q0 0.8125 0.421875 1.28125q0.421875 0.453125 1.15625 0.453125q0.5 0 0.875 -0.203125q0.390625 -0.21875 0.609375 -0.625q0.21875 -0.421875 0.21875 -1.0l0 -5.046875l2.34375 0l0 8.734375l-2.21875 0l-0.03125 -2.1875l0.140625 0q-0.34375 1.109375 -1.0625 1.703125q-0.703125 0.59375 -1.78125 0.59375zm10.1484375 0.046875q-1.015625 0 -1.828125 -0.515625q-0.796875 -0.53125 -1.265625 -1.53125q-0.46875 -1.015625 -0.46875 -2.46875q0 -1.484375 0.484375 -2.484375q0.484375 -1.0 1.28125 -1.5q0.8125 -0.5 1.78125 -0.5q0.734375 0 1.21875 0.25q0.5 0.25 0.796875 0.625q0.3125 0.359375 0.46875 0.703125l0.078125 0l0 -4.375l2.34375 0l0 11.640625l-2.3125 0l0 -1.40625l-0.109375 0q-0.15625 0.359375 -0.46875 0.71875q-0.3125 0.34375 -0.8125 0.59375q-0.484375 0.25 -1.1875 0.25zm0.71875 -1.890625q0.59375 0 1.015625 -0.328125q0.421875 -0.328125 0.640625 -0.921875q0.21875 -0.59375 0.21875 -1.375q0 -0.796875 -0.21875 -1.375q-0.21875 -0.59375 -0.640625 -0.90625q-0.421875 -0.328125 -1.015625 -0.328125q-0.625 0 -1.046875 0.34375q-0.40625 0.328125 -0.625 0.921875q-0.203125 0.578125 -0.203125 1.34375q0 0.765625 0.203125 1.359375q0.21875 0.59375 0.640625 0.9375q0.421875 0.328125 1.03125 0.328125z" fill-rule="nonzero"/><path fill="#eeeeee" d="m218.12204 321.50656l61.148987 0l0 43.000397c-30.574493 0 -30.574493 16.383942 -61.148987 7.0748596z" fill-rule="evenodd"/><path stroke="#595959" stroke-width="1.0" stroke-linejoin="round" stroke-linecap="butt" d="m218.12204 321.50656l61.148987 0l0 43.000397c-30.574493 0 -30.574493 16.383942 -61.148987 7.0748596z" fill-rule="evenodd"/><path fill="#000000" d="m229.54723 347.80676l3.3125 -9.703125l2.609375 0l3.390625 9.703125l-2.203125 0l-1.546875 -4.671875q-0.28125 -0.90625 -0.578125 -1.984375q-0.28125 -1.078125 -0.609375 -2.359375l0.4375 0q-0.3125 1.28125 -0.578125 2.375q-0.265625 1.078125 -0.53125 1.96875l-1.5 4.671875l-2.203125 0zm2.078125 -2.25l0 -1.5625l5.171875 0l0 1.5625l-5.171875 0zm8.388046 4.96875l0 -10.0l1.921875 0l0 1.234375l0.09375 0q0.140625 -0.296875 0.390625 -0.59375q0.25 -0.3125 0.65625 -0.515625q0.40625 -0.203125 1.03125 -0.203125q0.8125 0 1.46875 0.421875q0.671875 0.40625 1.078125 1.234375q0.40625 0.828125 0.40625 2.078125q0 1.203125 -0.390625 2.046875q-0.390625 0.84375 -1.0625 1.28125q-0.671875 0.421875 -1.515625 0.421875q-0.59375 0 -1.0 -0.203125q-0.40625 -0.203125 -0.671875 -0.5q-0.25 -0.296875 -0.390625 -0.59375l-0.0625 0l0 3.890625l-1.953125 0zm3.484375 -4.15625q0.5 0 0.84375 -0.28125q0.359375 -0.28125 0.53125 -0.78125q0.1875 -0.5 0.1875 -1.125q0 -0.640625 -0.1875 -1.125q-0.171875 -0.5 -0.515625 -0.78125q-0.34375 -0.28125 -0.859375 -0.28125q-0.5 0 -0.859375 0.28125q-0.34375 0.265625 -0.53125 0.75q-0.1875 0.484375 -0.1875 1.15625q0 0.65625 0.1875 1.15625q0.1875 0.484375 0.53125 0.765625q0.359375 0.265625 0.859375 0.265625zm4.9172974 4.15625l0 -10.0l1.9218597 0l0 1.234375l0.09375 0q0.140625 -0.296875 0.390625 -0.59375q0.25 -0.3125 0.65625 -0.515625q0.40625 -0.203125 1.03125 -0.203125q0.8125 0 1.46875 0.421875q0.671875 0.40625 1.078125 1.234375q0.40625 0.828125 0.40625 2.078125q0 1.203125 -0.390625 2.046875q-0.390625 0.84375 -1.0625 1.28125q-0.671875 0.421875 -1.515625 0.421875q-0.59375 0 -1.0 -0.203125q-0.40625 -0.203125 -0.671875 -0.5q-0.25 -0.296875 -0.390625 -0.59375l-0.0625 0l0 3.890625l-1.9531097 0zm3.4843597 -4.15625q0.5 0 0.84375 -0.28125q0.359375 -0.28125 0.53125 -0.78125q0.1875 -0.5 0.1875 -1.125q0 -0.640625 -0.1875 -1.125q-0.171875 -0.5 -0.515625 -0.78125q-0.34375 -0.28125 -0.859375 -0.28125q-0.5 0 -0.859375 0.28125q-0.34375 0.265625 -0.53125 0.75q-0.1875 0.484375 -0.1875 1.15625q0 0.65625 0.1875 1.15625q0.1875 0.484375 0.53125 0.765625q0.359375 0.265625 0.859375 0.265625zm7.9017487 -0.28125l0 -1.578125l4.0625 -6.40625l1.34375 0l0 2.1875l-0.796875 0l-2.609375 4.109375l0 0.078125l5.765625 0l0 1.609375l-7.765625 0zm4.640625 1.71875l0 -2.203125l0.046875 -0.703125l0 -6.796875l1.859375 0l0 9.703125l-1.90625 0z" fill-rule="nonzero"/><path fill="#fff2cc" fill-opacity="0.5686" d="m879.99475 249.70735l0 0c0 -19.221252 15.581909 -34.803146 34.80316 -34.803146l0 0c9.230347 0 18.082703 3.666748 24.609558 10.1936035c6.5268555 6.5268555 10.1936035 15.379166 10.1936035 24.609543l0 0c0 19.221237 -15.581909 34.803146 -34.80316 34.803146l0 0c-19.221252 0 -34.80316 -15.581909 -34.80316 -34.803146z" fill-rule="evenodd"/><path stroke="#fff2cc" stroke-width="1.0" stroke-linejoin="round" stroke-linecap="butt" d="m879.99475 249.70735l0 0c0 -19.221252 15.581909 -34.803146 34.80316 -34.803146l0 0c9.230347 0 18.082703 3.666748 24.609558 10.1936035c6.5268555 6.5268555 10.1936035 15.379166 10.1936035 24.609543l0 0c0 19.221237 -15.581909 34.803146 -34.80316 34.803146l0 0c-19.221252 0 -34.80316 -15.581909 -34.80316 -34.803146z" fill-rule="evenodd"/><path fill="#000000" fill-opacity="0.0" d="m884.23096 231.12466l61.13385 0l0 37.165375l-61.13385 0z" fill-rule="evenodd"/><path fill="#595959" d="m899.2512 254.36092q-1.328125 0 -2.328125 -0.484375q-0.984375 -0.5 -1.53125 -1.375q-0.546875 -0.875 -0.546875 -2.046875l0 -6.90625l2.1875 0l0 6.734375q0 0.625 0.265625 1.109375q0.28125 0.484375 0.765625 0.765625q0.5 0.265625 1.1875 0.265625q0.65625 0 1.15625 -0.265625q0.5 -0.28125 0.765625 -0.765625q0.28125 -0.484375 0.28125 -1.109375l0 -6.734375l2.1875 0l0 6.90625q0 1.171875 -0.546875 2.046875q-0.546875 0.875 -1.546875 1.375q-0.984375 0.484375 -2.296875 0.484375zm9.446167 0q-0.96875 0 -1.71875 -0.265625q-0.734375 -0.28125 -1.21875 -0.8125q-0.46875 -0.53125 -0.59375 -1.265625l2.0 -0.34375q0.15625 0.5625 0.546875 0.84375q0.390625 0.265625 1.046875 0.265625q0.609375 0 0.96875 -0.21875q0.359375 -0.234375 0.359375 -0.59375q0 -0.328125 -0.265625 -0.515625q-0.25 -0.203125 -0.765625 -0.3125l-1.390625 -0.28125q-1.15625 -0.234375 -1.734375 -0.796875q-0.5625 -0.578125 -0.5625 -1.484375q0 -0.765625 0.421875 -1.3125q0.421875 -0.5625 1.171875 -0.859375q0.75 -0.296875 1.765625 -0.296875q0.953125 0 1.640625 0.265625q0.703125 0.25 1.125 0.734375q0.4375 0.46875 0.578125 1.125l-1.90625 0.34375q-0.125 -0.421875 -0.46875 -0.671875q-0.34375 -0.265625 -0.9375 -0.265625q-0.53125 0 -0.890625 0.21875q-0.359375 0.21875 -0.359375 0.59375q0 0.296875 0.234375 0.515625q0.234375 0.203125 0.796875 0.3125l1.4375 0.296875q1.171875 0.234375 1.734375 0.765625q0.5625 0.53125 0.5625 1.390625q0 0.78125 -0.46875 1.375q-0.453125 0.59375 -1.265625 0.921875q-0.796875 0.328125 -1.84375 0.328125zm8.645874 0q-1.21875 0 -2.109375 -0.5q-0.890625 -0.5 -1.375 -1.421875q-0.46875 -0.921875 -0.46875 -2.1875q0 -1.25 0.46875 -2.171875q0.484375 -0.9375 1.34375 -1.453125q0.859375 -0.515625 2.03125 -0.515625q0.78125 0 1.453125 0.25q0.6875 0.25 1.203125 0.75q0.515625 0.5 0.8125 1.265625q0.296875 0.75 0.296875 1.78125l0 0.609375l-6.734375 0l0 -1.34375l5.671875 0l-1.0 0.34375q0 -0.609375 -0.1875 -1.0625q-0.1875 -0.46875 -0.5625 -0.71875q-0.375 -0.265625 -0.9375 -0.265625q-0.546875 0 -0.9375 0.265625q-0.390625 0.25 -0.59375 0.6875q-0.203125 0.4375 -0.203125 1.015625l0 0.9375q0 0.703125 0.234375 1.171875q0.234375 0.46875 0.640625 0.71875q0.421875 0.234375 0.984375 0.234375q0.375 0 0.6875 -0.109375q0.3125 -0.109375 0.53125 -0.3125q0.21875 -0.21875 0.328125 -0.53125l1.953125 0.359375q-0.203125 0.671875 -0.6875 1.171875q-0.46875 0.484375 -1.1875 0.765625q-0.71875 0.265625 -1.65625 0.265625zm5.121399 -0.15625l0 -8.0l2.0625 0l0 1.390625l0.09375 0q0.21875 -0.734375 0.734375 -1.109375q0.53125 -0.390625 1.203125 -0.390625q0.15625 0 0.34375 0.015625q0.1875 0.015625 0.34375 0.0625l0 1.90625q-0.140625 -0.046875 -0.421875 -0.0625q-0.265625 -0.03125 -0.515625 -0.03125q-0.484375 0 -0.875 0.21875q-0.390625 0.203125 -0.609375 0.578125q-0.21875 0.375 -0.21875 0.875l0 4.546875l-2.140625 0zm9.140259 0.15625q-0.96875 0 -1.71875 -0.265625q-0.734375 -0.28125 -1.21875 -0.8125q-0.46875 -0.53125 -0.59375 -1.265625l2.0 -0.34375q0.15625 0.5625 0.546875 0.84375q0.390625 0.265625 1.046875 0.265625q0.609375 0 0.96875 -0.21875q0.359375 -0.234375 0.359375 -0.59375q0 -0.328125 -0.265625 -0.515625q-0.25 -0.203125 -0.765625 -0.3125l-1.390625 -0.28125q-1.15625 -0.234375 -1.734375 -0.796875q-0.5625 -0.578125 -0.5625 -1.484375q0 -0.765625 0.421875 -1.3125q0.421875 -0.5625 1.171875 -0.859375q0.75 -0.296875 1.765625 -0.296875q0.953125 0 1.640625 0.265625q0.703125 0.25 1.125 0.734375q0.4375 0.46875 0.578125 1.125l-1.90625 0.34375q-0.125 -0.421875 -0.46875 -0.671875q-0.34375 -0.265625 -0.9375 -0.265625q-0.53125 0 -0.890625 0.21875q-0.359375 0.21875 -0.359375 0.59375q0 0.296875 0.234375 0.515625q0.234375 0.203125 0.796875 0.3125l1.4375 0.296875q1.171875 0.234375 1.734375 0.765625q0.5625 0.53125 0.5625 1.390625q0 0.78125 -0.46875 1.375q-0.453125 0.59375 -1.265625 0.921875q-0.796875 0.328125 -1.84375 0.328125z" fill-rule="nonzero"/><path fill="#000000" fill-opacity="0.0" d="m145.58661 143.21428l72.53543 0.25196838" fill-rule="evenodd"/><path stroke="#595959" stroke-width="1.0" stroke-linejoin="round" stroke-linecap="butt" d="m145.58661 143.21428l66.53548 0.23112488" fill-rule="evenodd"/><path fill="#595959" stroke="#595959" stroke-width="1.0" stroke-linecap="butt" d="m212.11635 145.09712l4.543808 -1.6359558l-4.5323334 -1.6674805z" fill-rule="evenodd"/><path fill="#000000" fill-opacity="0.0" d="m144.80052 211.75066l71.433075 0" fill-rule="evenodd"/><path stroke="#595959" stroke-width="1.0" stroke-linejoin="round" stroke-linecap="butt" d="m144.80052 211.75066l65.433075 0" fill-rule="evenodd"/><path fill="#595959" stroke="#595959" stroke-width="1.0" stroke-linecap="butt" d="m210.2336 213.40239l4.538101 -1.6517334l-4.538101 -1.6517334z" fill-rule="evenodd"/><path fill="#000000" fill-opacity="0.0" d="m145.60104 274.3071l72.50394 0" fill-rule="evenodd"/><path stroke="#595959" stroke-width="1.0" stroke-linejoin="round" stroke-linecap="butt" d="m145.60104 274.3071l66.50394 0" fill-rule="evenodd"/><path fill="#595959" stroke="#595959" stroke-width="1.0" stroke-linecap="butt" d="m212.10498 275.95883l4.538101 -1.6517334l-4.538101 -1.6517334z" fill-rule="evenodd"/><path fill="#000000" fill-opacity="0.0" d="m144.80052 348.80054l72.346466 -0.47244263" fill-rule="evenodd"/><path stroke="#595959" stroke-width="1.0" stroke-linejoin="round" stroke-linecap="butt" d="m144.80052 348.80054l66.34659 -0.43328857" fill-rule="evenodd"/><path fill="#595959" stroke="#595959" stroke-width="1.0" stroke-linecap="butt" d="m211.1579 350.01895l4.5272064 -1.6813354l-4.5487823 -1.6220398z" fill-rule="evenodd"/><path fill="#000000" fill-opacity="0.0" d="m279.27103 143.46625l70.04724 51.87401" fill-rule="evenodd"/><path stroke="#595959" stroke-width="1.0" stroke-linejoin="round" stroke-linecap="butt" d="m279.27103 143.46625l65.225494 48.303238" fill-rule="evenodd"/><path fill="#595959" stroke="#595959" stroke-width="1.0" stroke-linecap="butt" d="m343.51352 193.09685l4.629944 1.3733978l-2.6639404 -4.0281525z" fill-rule="evenodd"/><path fill="#000000" fill-opacity="0.0" d="m279.27103 211.74971l69.38583 -0.40945435" fill-rule="evenodd"/><path stroke="#595959" stroke-width="1.0" stroke-linejoin="round" stroke-linecap="butt" d="m279.27103 211.74971l63.385956 -0.3740387" fill-rule="evenodd"/><path fill="#595959" stroke="#595959" stroke-width="1.0" stroke-linecap="butt" d="m342.66672 213.02737l4.5282593 -1.678482l-4.54776 -1.6249237z" fill-rule="evenodd"/><path fill="#000000" fill-opacity="0.0" d="m279.27103 280.03317l71.40158 -0.03149414" fill-rule="evenodd"/><path stroke="#595959" stroke-width="1.0" stroke-linejoin="round" stroke-linecap="butt" d="m279.27103 280.03317l65.40158 -0.028839111" fill-rule="evenodd"/><path fill="#595959" stroke="#595959" stroke-width="1.0" stroke-linecap="butt" d="m344.67334 281.65607l4.537384 -1.6537476l-4.538849 -1.6497192z" fill-rule="evenodd"/><path fill="#000000" fill-opacity="0.0" d="m279.27103 348.31665l70.74014 -52.314972" fill-rule="evenodd"/><path stroke="#595959" stroke-width="1.0" stroke-linejoin="round" stroke-linecap="butt" d="m279.27103 348.31665l65.91608 -48.747375" fill-rule="evenodd"/><path fill="#595959" stroke="#595959" stroke-width="1.0" stroke-linecap="butt" d="m346.1692 300.8973l2.6665955 -4.026367l-4.630829 1.3703308z" fill-rule="evenodd"/><path fill="#000000" fill-opacity="0.0" d="m806.79266 249.70341l95.84253 0l0 30.708664l-95.84253 0z" fill-rule="evenodd"/><path fill="#595959" d="m819.5583 267.06967q-0.453125 0.390625 -0.875 0.546875q-0.421875 0.15625 -0.90625 0.15625q-0.796875 0 -1.21875 -0.390625q-0.421875 -0.390625 -0.421875 -1.0q0 -0.34375 0.15625 -0.640625q0.15625 -0.296875 0.421875 -0.46875q0.265625 -0.1875 0.59375 -0.28125q0.234375 -0.0625 0.71875 -0.109375q1.0 -0.125 1.46875 -0.28125q0 -0.171875 0 -0.21875q0 -0.5 -0.234375 -0.703125q-0.3125 -0.28125 -0.921875 -0.28125q-0.578125 0 -0.859375 0.203125q-0.28125 0.203125 -0.40625 0.71875l-0.796875 -0.109375q0.109375 -0.515625 0.359375 -0.828125q0.25 -0.328125 0.71875 -0.5q0.46875 -0.171875 1.09375 -0.171875q0.625 0 1.0 0.15625q0.390625 0.140625 0.578125 0.359375q0.1875 0.21875 0.25 0.5625q0.046875 0.203125 0.046875 0.75l0 1.09375q0 1.140625 0.046875 1.453125q0.0625 0.296875 0.21875 0.578125l-0.859375 0q-0.125 -0.25 -0.171875 -0.59375zm-0.0625 -1.828125q-0.453125 0.171875 -1.34375 0.296875q-0.5 0.078125 -0.71875 0.171875q-0.203125 0.09375 -0.3125 0.265625q-0.109375 0.171875 -0.109375 0.390625q0 0.328125 0.234375 0.546875q0.25 0.21875 0.734375 0.21875q0.46875 0 0.828125 -0.203125q0.375 -0.21875 0.5625 -0.578125q0.125 -0.265625 0.125 -0.8125l0 -0.296875zm2.0941162 4.28125l0 -6.703125l0.75 0l0 0.640625q0.265625 -0.375 0.59375 -0.5625q0.34375 -0.1875 0.8125 -0.1875q0.625 0 1.09375 0.328125q0.46875 0.3125 0.703125 0.90625q0.25 0.578125 0.25 1.265625q0 0.734375 -0.265625 1.328125q-0.265625 0.59375 -0.78125 0.921875q-0.5 0.3125 -1.0625 0.3125q-0.40625 0 -0.734375 -0.171875q-0.328125 -0.171875 -0.53125 -0.4375l0 2.359375l-0.828125 0zm0.75 -4.25q0 0.9375 0.375 1.390625q0.375 0.4375 0.921875 0.4375q0.546875 0 0.921875 -0.453125q0.390625 -0.46875 0.390625 -1.4375q0 -0.9375 -0.375 -1.390625q-0.375 -0.453125 -0.90625 -0.453125q-0.53125 0 -0.9375 0.484375q-0.390625 0.484375 -0.390625 1.421875zm4.437866 4.25l0 -6.703125l0.75 0l0 0.640625q0.265625 -0.375 0.59375 -0.5625q0.34375 -0.1875 0.8125 -0.1875q0.625 0 1.09375 0.328125q0.46875 0.3125 0.703125 0.90625q0.25 0.578125 0.25 1.265625q0 0.734375 -0.265625 1.328125q-0.265625 0.59375 -0.78125 0.921875q-0.5 0.3125 -1.0625 0.3125q-0.40625 0 -0.734375 -0.171875q-0.328125 -0.171875 -0.53125 -0.4375l0 2.359375l-0.828125 0zm0.75 -4.25q0 0.9375 0.375 1.390625q0.375 0.4375 0.921875 0.4375q0.546875 0 0.921875 -0.453125q0.390625 -0.46875 0.390625 -1.4375q0 -0.9375 -0.375 -1.390625q-0.375 -0.453125 -0.90625 -0.453125q-0.53125 0 -0.9375 0.484375q-0.390625 0.484375 -0.390625 1.421875zm4.125366 0.390625l0 -0.828125l2.515625 0l0 0.828125l-2.515625 0zm3.0906982 0.5625l0.8125 -0.140625q0.078125 0.5 0.390625 0.765625q0.3125 0.25 0.859375 0.25q0.578125 0 0.84375 -0.234375q0.28125 -0.234375 0.28125 -0.53125q0 -0.28125 -0.25 -0.4375q-0.171875 -0.109375 -0.84375 -0.28125q-0.890625 -0.234375 -1.25 -0.390625q-0.34375 -0.171875 -0.53125 -0.46875q-0.171875 -0.296875 -0.171875 -0.640625q0 -0.328125 0.140625 -0.59375q0.15625 -0.28125 0.40625 -0.46875q0.203125 -0.140625 0.53125 -0.234375q0.328125 -0.109375 0.703125 -0.109375q0.578125 0 1.0 0.171875q0.4375 0.15625 0.640625 0.4375q0.203125 0.28125 0.28125 0.75l-0.796875 0.109375q-0.0625 -0.375 -0.328125 -0.578125q-0.265625 -0.203125 -0.734375 -0.203125q-0.5625 0 -0.8125 0.1875q-0.234375 0.171875 -0.234375 0.4375q0 0.15625 0.09375 0.28125q0.109375 0.125 0.3125 0.21875q0.125 0.046875 0.734375 0.203125q0.859375 0.234375 1.203125 0.390625q0.34375 0.140625 0.53125 0.421875q0.203125 0.28125 0.203125 0.703125q0 0.40625 -0.234375 0.78125q-0.234375 0.359375 -0.6875 0.5625q-0.453125 0.1875 -1.015625 0.1875q-0.953125 0 -1.453125 -0.390625q-0.484375 -0.390625 -0.625 -1.15625zm6.7890625 0.703125l0.109375 0.71875q-0.34375 0.078125 -0.609375 0.078125q-0.453125 0 -0.703125 -0.140625q-0.234375 -0.140625 -0.34375 -0.359375q-0.09375 -0.234375 -0.09375 -0.984375l0 -2.78125l-0.609375 0l0 -0.640625l0.609375 0l0 -1.1875l0.8125 -0.5l0 1.6875l0.828125 0l0 0.640625l-0.828125 0l0 2.828125q0 0.359375 0.046875 0.46875q0.046875 0.09375 0.140625 0.15625q0.09375 0.046875 0.28125 0.046875q0.140625 0 0.359375 -0.03125zm0.4979248 -1.6875q0 -1.34375 0.75 -1.984375q0.625 -0.546875 1.515625 -0.546875q1.0 0 1.625 0.65625q0.640625 0.65625 0.640625 1.8125q0 0.9375 -0.28125 1.46875q-0.28125 0.53125 -0.8125 0.828125q-0.53125 0.296875 -1.171875 0.296875q-1.015625 0 -1.640625 -0.640625q-0.625 -0.65625 -0.625 -1.890625zm0.84375 0q0 0.9375 0.40625 1.40625q0.40625 0.453125 1.015625 0.453125q0.609375 0 1.015625 -0.46875q0.40625 -0.46875 0.40625 -1.421875q0 -0.890625 -0.40625 -1.34375q-0.40625 -0.46875 -1.015625 -0.46875q-0.609375 0 -1.015625 0.46875q-0.40625 0.453125 -0.40625 1.375zm4.640991 2.421875l0 -4.84375l0.734375 0l0 0.734375q0.28125 -0.515625 0.515625 -0.671875q0.25 -0.171875 0.53125 -0.171875q0.421875 0 0.84375 0.265625l-0.28125 0.765625q-0.296875 -0.171875 -0.609375 -0.171875q-0.265625 0 -0.484375 0.15625q-0.203125 0.15625 -0.296875 0.453125q-0.140625 0.4375 -0.140625 0.953125l0 2.53125l-0.8125 0zm6.4188232 -1.5625l0.84375 0.109375q-0.1875 0.75 -0.734375 1.15625q-0.546875 0.40625 -1.390625 0.40625q-1.0625 0 -1.6875 -0.65625q-0.609375 -0.65625 -0.609375 -1.828125q0 -1.21875 0.625 -1.890625q0.625 -0.6875 1.625 -0.6875q0.984375 0 1.59375 0.671875q0.609375 0.65625 0.609375 1.859375q0 0.0625 0 0.21875l-3.609375 0q0.046875 0.796875 0.453125 1.21875q0.40625 0.421875 1.015625 0.421875q0.453125 0 0.765625 -0.234375q0.3125 -0.234375 0.5 -0.765625zm-2.6875 -1.328125l2.703125 0q-0.0625 -0.609375 -0.3125 -0.90625q-0.390625 -0.46875 -1.015625 -0.46875q-0.5625 0 -0.953125 0.375q-0.375 0.375 -0.421875 1.0zm4.797241 2.890625l0 -0.9375l0.9375 0l0 0.9375l-0.9375 0zm5.51355 -1.765625l0.8125 0.09375q-0.125 0.84375 -0.671875 1.3125q-0.546875 0.46875 -1.34375 0.46875q-0.984375 0 -1.59375 -0.640625q-0.609375 -0.65625 -0.609375 -1.875q0 -0.78125 0.265625 -1.359375q0.265625 -0.59375 0.78125 -0.890625q0.53125 -0.296875 1.15625 -0.296875q0.796875 0 1.296875 0.40625q0.5 0.390625 0.640625 1.125l-0.796875 0.125q-0.109375 -0.484375 -0.40625 -0.71875q-0.28125 -0.25 -0.703125 -0.25q-0.609375 0 -1.0 0.4375q-0.390625 0.4375 -0.390625 1.40625q0 0.96875 0.375 1.421875q0.375 0.4375 0.984375 0.4375q0.46875 0 0.796875 -0.296875q0.328125 -0.296875 0.40625 -0.90625zm1.2109375 -0.65625q0 -1.34375 0.75 -1.984375q0.625 -0.546875 1.515625 -0.546875q1.0 0 1.625 0.65625q0.640625 0.65625 0.640625 1.8125q0 0.9375 -0.28125 1.46875q-0.28125 0.53125 -0.8125 0.828125q-0.53125 0.296875 -1.171875 0.296875q-1.015625 0 -1.640625 -0.640625q-0.625 -0.65625 -0.625 -1.890625zm0.84375 0q0 0.9375 0.40625 1.40625q0.40625 0.453125 1.015625 0.453125q0.609375 0 1.015625 -0.46875q0.40625 -0.46875 0.40625 -1.421875q0 -0.890625 -0.40625 -1.34375q-0.40625 -0.46875 -1.015625 -0.46875q-0.609375 0 -1.015625 0.46875q-0.40625 0.453125 -0.40625 1.375zm4.640991 2.421875l0 -4.84375l0.734375 0l0 0.6875q0.234375 -0.359375 0.609375 -0.578125q0.375 -0.21875 0.859375 -0.21875q0.546875 0 0.890625 0.234375q0.34375 0.21875 0.484375 0.625q0.5625 -0.859375 1.484375 -0.859375q0.71875 0 1.109375 0.40625q0.390625 0.390625 0.390625 1.21875l0 3.328125l-0.8125 0l0 -3.046875q0 -0.484375 -0.09375 -0.703125q-0.078125 -0.21875 -0.28125 -0.34375q-0.203125 -0.140625 -0.484375 -0.140625q-0.515625 0 -0.859375 0.34375q-0.328125 0.328125 -0.328125 1.078125l0 2.8125l-0.828125 0l0 -3.140625q0 -0.546875 -0.203125 -0.8125q-0.1875 -0.28125 -0.65625 -0.28125q-0.34375 0 -0.640625 0.1875q-0.28125 0.171875 -0.421875 0.53125q-0.125 0.34375 -0.125 1.0l0 2.515625l-0.828125 0z" fill-rule="nonzero"/><path fill="#000000" fill-opacity="0.0" d="m557.00525 250.08698l-67.84253 -44.283463" fill-rule="evenodd"/><path stroke="#595959" stroke-width="1.0" stroke-linejoin="round" stroke-linecap="butt" d="m557.00525 250.08699l-62.818146 -41.003876" fill-rule="evenodd"/><path fill="#595959" stroke="#595959" stroke-width="1.0" stroke-linecap="butt" d="m495.08994 207.69997l-4.703003 -1.0973663l2.8973389 3.8636627z" fill-rule="evenodd"/><path fill="#000000" fill-opacity="0.0" d="m557.00525 250.08698l-67.84253 32.0" fill-rule="evenodd"/><path stroke="#595959" stroke-width="1.0" stroke-linejoin="round" stroke-linecap="butt" d="m557.00525 250.08699l-62.415894 29.440353" fill-rule="evenodd"/><path fill="#595959" stroke="#595959" stroke-width="1.0" stroke-linecap="butt" d="m493.8847 278.03345l-3.3997803 3.4298706l4.809082 -0.44207764z" fill-rule="evenodd"/><path fill="#000000" fill-opacity="0.0" d="m878.60236 249.33202l-71.811035 0.75590515" fill-rule="evenodd"/><path stroke="#595959" stroke-width="1.0" stroke-linejoin="round" stroke-linecap="butt" d="m878.60236 249.33202l-65.81134 0.692749" fill-rule="evenodd"/><path fill="#595959" stroke="#595959" stroke-width="1.0" stroke-linecap="butt" d="m812.7736 248.37314l-4.520447 1.6994019l4.555237 1.6038666z" fill-rule="evenodd"/><path fill="#d6f1f5" fill-opacity="0.498" d="m667.3583 227.61957l0 0c0 -0.9676666 0.7844238 -1.752121 1.7520752 -1.752121l135.9289 0c0.46466064 0 0.91033936 0.18460083 1.2388916 0.5131836c0.32861328 0.32858276 0.5131836 0.7742462 0.5131836 1.2389374l0 44.936737c0 0.96765137 -0.7844238 1.7521057 -1.7520752 1.7521057l-135.9289 0c-0.96765137 0 -1.7520752 -0.78445435 -1.7520752 -1.7521057z" fill-rule="evenodd"/><path stroke="#d0e0e3" stroke-width="1.0" stroke-linejoin="round" stroke-linecap="butt" d="m667.3583 227.61957l0 0c0 -0.9676666 0.7844238 -1.752121 1.7520752 -1.752121l135.9289 0c0.46466064 0 0.91033936 0.18460083 1.2388916 0.5131836c0.32861328 0.32858276 0.5131836 0.7742462 0.5131836 1.2389374l0 44.936737c0 0.96765137 -0.7844238 1.7521057 -1.7520752 1.7521057l-135.9289 0c-0.96765137 0 -1.7520752 -0.78445435 -1.7520752 -1.7521057z" fill-rule="evenodd"/><path fill="#000000" d="m691.8014 251.84793l2.03125 0l1.078125 1.375l0.96875 1.125l1.9375 2.46875l-2.21875 0l-1.328125 -1.65625l-0.65625 -0.921875l-1.8125 -2.390625zm0.734375 4.15625q-1.546875 0 -2.78125 -0.703125q-1.21875 -0.703125 -1.9375 -2.03125q-0.71875 -1.34375 -0.71875 -3.234375q0 -1.90625 0.71875 -3.234375q0.71875 -1.34375 1.9375 -2.046875q1.234375 -0.703125 2.78125 -0.703125q1.546875 0 2.765625 0.703125q1.234375 0.703125 1.9375 2.046875q0.71875 1.328125 0.71875 3.234375q0 1.890625 -0.71875 3.234375q-0.703125 1.328125 -1.9375 2.03125q-1.21875 0.703125 -2.765625 0.703125zm0 -2.125q0.90625 0 1.578125 -0.4375q0.671875 -0.4375 1.046875 -1.296875q0.375 -0.875 0.375 -2.109375q0 -1.265625 -0.375 -2.125q-0.375 -0.859375 -1.046875 -1.296875q-0.671875 -0.453125 -1.578125 -0.453125q-0.90625 0 -1.59375 0.453125q-0.671875 0.4375 -1.046875 1.3125q-0.375 0.859375 -0.375 2.109375q0 1.234375 0.375 2.09375q0.375 0.859375 1.046875 1.3125q0.6875 0.4375 1.59375 0.4375zm10.2734375 2.078125q-0.90625 0 -1.59375 -0.390625q-0.671875 -0.40625 -1.046875 -1.140625q-0.375 -0.734375 -0.375 -1.765625l0 -5.546875l2.34375 0l0 5.140625q0 0.8125 0.421875 1.28125q0.421875 0.453125 1.15625 0.453125q0.5 0 0.875 -0.203125q0.390625 -0.21875 0.609375 -0.625q0.21875 -0.421875 0.21875 -1.0l0 -5.046875l2.34375 0l0 8.734375l-2.21875 0l-0.03125 -2.1875l0.140625 0q-0.34375 1.109375 -1.0625 1.703125q-0.703125 0.59375 -1.78125 0.59375zm9.3828125 0.0625q-0.828125 0 -1.484375 -0.296875q-0.65625 -0.296875 -1.046875 -0.875q-0.375 -0.578125 -0.375 -1.453125q0 -0.71875 0.265625 -1.203125q0.28125 -0.5 0.734375 -0.796875q0.46875 -0.296875 1.0625 -0.453125q0.59375 -0.15625 1.234375 -0.21875q0.765625 -0.078125 1.21875 -0.140625q0.46875 -0.078125 0.6875 -0.21875q0.21875 -0.140625 0.21875 -0.421875l0 -0.046875q0 -0.375 -0.15625 -0.625q-0.15625 -0.265625 -0.46875 -0.390625q-0.296875 -0.140625 -0.75 -0.140625q-0.453125 0 -0.796875 0.140625q-0.328125 0.125 -0.546875 0.359375q-0.203125 0.21875 -0.296875 0.5l-2.15625 -0.359375q0.234375 -0.75 0.75 -1.28125q0.53125 -0.53125 1.296875 -0.8125q0.78125 -0.28125 1.75 -0.28125q0.71875 0 1.375 0.171875q0.671875 0.15625 1.1875 0.515625q0.53125 0.34375 0.84375 0.90625q0.3125 0.5625 0.3125 1.359375l0 5.890625l-2.21875 0l0 -1.21875l-0.078125 0q-0.21875 0.40625 -0.578125 0.71875q-0.34375 0.3125 -0.84375 0.5q-0.484375 0.171875 -1.140625 0.171875zm0.671875 -1.65625q0.546875 0 0.96875 -0.21875q0.421875 -0.21875 0.65625 -0.59375q0.234375 -0.375 0.234375 -0.828125l0 -0.953125q-0.109375 0.078125 -0.328125 0.140625q-0.203125 0.0625 -0.46875 0.109375q-0.25 0.046875 -0.5 0.09375q-0.25 0.03125 -0.4375 0.0625q-0.4375 0.0625 -0.765625 0.203125q-0.328125 0.140625 -0.515625 0.375q-0.171875 0.21875 -0.171875 0.578125q0 0.34375 0.171875 0.578125q0.171875 0.21875 0.46875 0.34375q0.296875 0.109375 0.6875 0.109375zm6.1796875 1.484375l0 -8.734375l2.265625 0l0 1.515625l0.09375 0q0.25 -0.8125 0.8125 -1.21875q0.5625 -0.421875 1.296875 -0.421875q0.1875 0 0.390625 0.03125q0.203125 0.015625 0.375 0.046875l0 2.09375q-0.15625 -0.046875 -0.453125 -0.078125q-0.296875 -0.03125 -0.5625 -0.03125q-0.53125 0 -0.96875 0.234375q-0.421875 0.21875 -0.671875 0.640625q-0.234375 0.40625 -0.234375 0.953125l0 4.96875l-2.34375 0zm11.171875 -8.734375l0 1.78125l-5.1875 0l0 -1.78125l5.1875 0zm-3.984375 -2.078125l2.34375 0l0 8.25q0 0.421875 0.1875 0.625q0.1875 0.1875 0.609375 0.1875q0.140625 0 0.375 -0.03125q0.25 -0.03125 0.375 -0.0625l0.328125 1.75q-0.390625 0.125 -0.78125 0.171875q-0.375 0.046875 -0.734375 0.046875q-1.3125 0 -2.015625 -0.640625q-0.6875 -0.640625 -0.6875 -1.84375l0 -8.453125zm9.25 10.984375q-1.3125 0 -2.28125 -0.5625q-0.953125 -0.578125 -1.46875 -1.578125q-0.515625 -1.015625 -0.515625 -2.359375q0 -1.359375 0.515625 -2.375q0.515625 -1.015625 1.46875 -1.578125q0.96875 -0.5625 2.28125 -0.5625q1.328125 0 2.28125 0.5625q0.953125 0.5625 1.46875 1.578125q0.53125 1.015625 0.53125 2.375q0 1.34375 -0.53125 2.359375q-0.515625 1.0 -1.46875 1.578125q-0.953125 0.5625 -2.28125 0.5625zm0 -1.84375q0.625 0 1.046875 -0.34375q0.421875 -0.359375 0.625 -0.953125q0.21875 -0.609375 0.21875 -1.375q0 -0.765625 -0.21875 -1.359375q-0.203125 -0.609375 -0.625 -0.953125q-0.421875 -0.34375 -1.046875 -0.34375q-0.625 0 -1.046875 0.34375q-0.40625 0.34375 -0.625 0.953125q-0.203125 0.59375 -0.203125 1.359375q0 0.765625 0.203125 1.375q0.21875 0.59375 0.625 0.953125q0.421875 0.34375 1.046875 0.34375zm13.6015625 1.84375q-1.3125 0 -2.28125 -0.5625q-0.953125 -0.578125 -1.46875 -1.578125q-0.515625 -1.015625 -0.515625 -2.359375q0 -1.359375 0.515625 -2.375q0.515625 -1.015625 1.46875 -1.578125q0.96875 -0.5625 2.28125 -0.5625q0.78125 0 1.4375 0.203125q0.65625 0.203125 1.15625 0.578125q0.515625 0.375 0.84375 0.921875q0.328125 0.53125 0.453125 1.203125l-2.1875 0.40625q-0.0625 -0.34375 -0.21875 -0.609375q-0.140625 -0.28125 -0.359375 -0.46875q-0.203125 -0.1875 -0.484375 -0.28125q-0.28125 -0.109375 -0.609375 -0.109375q-0.625 0 -1.0625 0.34375q-0.421875 0.328125 -0.640625 0.9375q-0.203125 0.59375 -0.203125 1.375q0 0.78125 0.203125 1.390625q0.21875 0.59375 0.640625 0.9375q0.4375 0.34375 1.0625 0.34375q0.328125 0 0.609375 -0.109375q0.28125 -0.109375 0.5 -0.296875q0.21875 -0.203125 0.359375 -0.484375q0.15625 -0.28125 0.21875 -0.640625l2.1875 0.40625q-0.125 0.6875 -0.453125 1.234375q-0.328125 0.546875 -0.84375 0.9375q-0.5 0.390625 -1.171875 0.59375q-0.65625 0.203125 -1.4375 0.203125zm7.8515625 -11.8125l0 11.640625l-2.34375 0l0 -11.640625l2.34375 0zm5.8984375 11.8125q-1.3125 0 -2.28125 -0.5625q-0.953125 -0.578125 -1.46875 -1.578125q-0.515625 -1.015625 -0.515625 -2.359375q0 -1.359375 0.515625 -2.375q0.515625 -1.015625 1.46875 -1.578125q0.96875 -0.5625 2.28125 -0.5625q1.328125 0 2.28125 0.5625q0.953125 0.5625 1.46875 1.578125q0.53125 1.015625 0.53125 2.375q0 1.34375 -0.53125 2.359375q-0.515625 1.0 -1.46875 1.578125q-0.953125 0.5625 -2.28125 0.5625zm0 -1.84375q0.625 0 1.046875 -0.34375q0.421875 -0.359375 0.625 -0.953125q0.21875 -0.609375 0.21875 -1.375q0 -0.765625 -0.21875 -1.359375q-0.203125 -0.609375 -0.625 -0.953125q-0.421875 -0.34375 -1.046875 -0.34375q-0.625 0 -1.046875 0.34375q-0.40625 0.34375 -0.625 0.953125q-0.203125 0.59375 -0.203125 1.359375q0 0.765625 0.203125 1.375q0.21875 0.59375 0.625 0.953125q0.421875 0.34375 1.046875 0.34375zm8.921875 1.78125q-0.90625 0 -1.59375 -0.390625q-0.671875 -0.40625 -1.046875 -1.140625q-0.375 -0.734375 -0.375 -1.765625l0 -5.546875l2.34375 0l0 5.140625q0 0.8125 0.421875 1.28125q0.421875 0.453125 1.15625 0.453125q0.5 0 0.875 -0.203125q0.390625 -0.21875 0.609375 -0.625q0.21875 -0.421875 0.21875 -1.0l0 -5.046875l2.34375 0l0 8.734375l-2.21875 0l-0.03125 -2.1875l0.140625 0q-0.34375 1.109375 -1.0625 1.703125q-0.703125 0.59375 -1.78125 0.59375zm10.1484375 0.046875q-1.015625 0 -1.828125 -0.515625q-0.796875 -0.53125 -1.265625 -1.53125q-0.46875 -1.015625 -0.46875 -2.46875q0 -1.484375 0.484375 -2.484375q0.484375 -1.0 1.28125 -1.5q0.8125 -0.5 1.78125 -0.5q0.734375 0 1.21875 0.25q0.5 0.25 0.796875 0.625q0.3125 0.359375 0.46875 0.703125l0.078125 0l0 -4.375l2.34375 0l0 11.640625l-2.3125 0l0 -1.40625l-0.109375 0q-0.15625 0.359375 -0.46875 0.71875q-0.3125 0.34375 -0.8125 0.59375q-0.484375 0.25 -1.1875 0.25zm0.71875 -1.890625q0.59375 0 1.015625 -0.328125q0.421875 -0.328125 0.640625 -0.921875q0.21875 -0.59375 0.21875 -1.375q0 -0.796875 -0.21875 -1.375q-0.21875 -0.59375 -0.640625 -0.90625q-0.421875 -0.328125 -1.015625 -0.328125q-0.625 0 -1.046875 0.34375q-0.40625 0.328125 -0.625 0.921875q-0.203125 0.578125 -0.203125 1.34375q0 0.765625 0.203125 1.359375q0.21875 0.59375 0.640625 0.9375q0.421875 0.328125 1.03125 0.328125z" fill-rule="nonzero"/><path fill="#000000" fill-opacity="0.0" d="m667.3583 250.08792l-49.19684 0" fill-rule="evenodd"/><path stroke="#595959" stroke-width="1.0" stroke-linejoin="round" stroke-linecap="butt" d="m667.3583 250.08792l-43.19684 0" fill-rule="evenodd"/><path fill="#595959" stroke="#595959" stroke-width="1.0" stroke-linecap="butt" d="m624.16144 248.43619l-4.538147 1.6517334l4.538147 1.6517334z" fill-rule="evenodd"/></g></svg>